# Blender 5.0.1
# www.blender.org
mtllib hombroderecha.mtl
o Mesh0.001
v -0.190433 0.556896 -0.073348
v -0.191961 0.506848 -0.031978
v -0.191961 0.506848 -0.031978
v -0.195776 0.519580 -0.027181
v -0.195776 0.519580 -0.027181
v -0.187314 0.498779 -0.046742
v -0.160185 0.513362 -0.057364
v -0.232755 0.467919 -0.056705
v -0.209651 0.449826 -0.070837
v -0.201717 0.452369 -0.051977
v -0.201717 0.452369 -0.051977
v -0.166854 0.473592 -0.036931
v -0.215564 0.446340 -0.049252
v -0.213105 0.587757 -0.093881
v -0.213105 0.587757 -0.093881
v -0.214103 0.579258 -0.003884
v -0.214103 0.579258 -0.003884
v -0.214103 0.579258 -0.003884
v -0.235353 0.410654 -0.073064
v -0.235013 0.404076 -0.048066
v -0.235013 0.404076 -0.048066
v -0.242541 0.422686 -0.066963
v -0.242541 0.422686 -0.066963
v -0.242541 0.422686 -0.066963
v -0.241014 0.401171 -0.043955
v -0.250546 0.410510 -0.058466
v -0.208528 0.551457 -0.073743
v -0.208528 0.551457 -0.073743
v -0.201767 0.551631 -0.075377
v -0.202914 0.567201 -0.073026
v -0.202914 0.567201 -0.073026
v -0.212149 0.556633 -0.068314
v -0.212149 0.556633 -0.068314
v -0.185307 0.544103 -0.066976
v -0.185307 0.544103 -0.066976
v -0.177026 0.547489 -0.069680
v -0.177026 0.547489 -0.069680
v -0.179824 0.562560 -0.071906
v -0.195401 0.545471 -0.072321
v -0.195401 0.545471 -0.072321
v -0.190860 0.540426 -0.065225
v -0.190860 0.540426 -0.065225
v -0.192308 0.513892 -0.035956
v -0.192845 0.493847 -0.036196
v -0.192845 0.493847 -0.036196
v -0.202980 0.492909 -0.028960
v -0.199188 0.505674 -0.026051
v -0.199188 0.505674 -0.026051
v -0.200734 0.529748 -0.029716
v -0.200734 0.529748 -0.029716
v -0.196938 0.523345 -0.039474
v -0.210856 0.519942 -0.025484
v -0.210915 0.533656 -0.026926
v -0.212907 0.506755 -0.026205
v -0.193107 0.515801 -0.051591
v -0.191192 0.514321 -0.064352
v -0.187325 0.498375 -0.062920
v -0.190228 0.483367 -0.061457
v -0.190853 0.482564 -0.049142
v -0.196301 0.481829 -0.038761
v -0.196301 0.481829 -0.038761
v -0.160381 0.523928 -0.057354
v -0.160187 0.521714 -0.027800
v -0.160237 0.515250 -0.018655
v -0.160123 0.545985 -0.094979
v -0.160194 0.546165 -0.087335
v -0.167065 0.467527 -0.064990
v -0.160631 0.505476 -0.083749
v -0.161454 0.502566 -0.007265
v -0.161454 0.502566 -0.007265
v -0.233345 0.475963 -0.055503
v -0.230148 0.474706 -0.044134
v -0.230148 0.474706 -0.044134
v -0.230322 0.464956 -0.049020
v -0.231370 0.464828 -0.063811
v -0.231921 0.475587 -0.066608
v -0.228775 0.457963 -0.056334
v -0.217220 0.448671 -0.069389
v -0.214106 0.444951 -0.060516
v -0.205724 0.448635 -0.064695
v -0.205724 0.448635 -0.064695
v -0.207100 0.457962 -0.076834
v -0.207100 0.457962 -0.076834
v -0.218057 0.458919 -0.078290
v -0.218057 0.458919 -0.078290
v -0.200061 0.458406 -0.069374
v -0.200061 0.458406 -0.069374
v -0.200061 0.458406 -0.069374
v -0.197776 0.459652 -0.051173
v -0.197841 0.459427 -0.060498
v -0.203385 0.450414 -0.057716
v -0.203385 0.450414 -0.057716
v -0.206475 0.449846 -0.046096
v -0.206475 0.449846 -0.046096
v -0.206475 0.449846 -0.046096
v -0.202612 0.458724 -0.041192
v -0.202612 0.458724 -0.041192
v -0.210258 0.445364 -0.052830
v -0.173754 0.499168 0.000382
v -0.173754 0.499168 0.000382
v -0.180299 0.467930 -0.018477
v -0.180299 0.467930 -0.018477
v -0.220547 0.448309 -0.055895
v -0.220547 0.448309 -0.055895
v -0.224569 0.454047 -0.047401
v -0.224569 0.454047 -0.047401
v -0.224569 0.454047 -0.047401
v -0.215522 0.450214 -0.042345
v -0.215522 0.450214 -0.042345
v -0.220428 0.565402 -0.099766
v -0.220428 0.565402 -0.099766
v -0.234754 0.571236 -0.075733
v -0.217564 0.598660 -0.075623
v -0.199481 0.591671 -0.102318
v -0.199481 0.591671 -0.102318
v -0.202534 0.558177 -0.114400
v -0.200882 0.611850 -0.078439
v -0.200882 0.611850 -0.078439
v -0.200882 0.611850 -0.078439
v -0.199142 0.582000 0.004061
v -0.199142 0.582000 0.004061
v -0.200599 0.605675 -0.015190
v -0.218033 0.593427 -0.019564
v -0.218033 0.593427 -0.019564
v -0.219969 0.557289 0.000563
v -0.219969 0.557289 0.000563
v -0.200721 0.548797 0.011148
v -0.234691 0.566577 -0.020441
v -0.233790 0.412968 -0.068087
v -0.233790 0.412968 -0.068087
v -0.233790 0.412968 -0.068087
v -0.238583 0.419053 -0.066777
v -0.238583 0.419053 -0.066777
v -0.239987 0.413049 -0.074096
v -0.232471 0.404757 -0.075524
v -0.228024 0.405723 -0.069619
v -0.228024 0.405723 -0.069619
v -0.239129 0.404503 -0.078708
v -0.233215 0.397955 -0.045476
v -0.233215 0.397955 -0.045476
v -0.240086 0.407321 -0.047393
v -0.240086 0.407321 -0.047393
v -0.232020 0.405586 -0.051602
v -0.232020 0.405586 -0.051602
v -0.226748 0.396836 -0.048933
v -0.226748 0.396836 -0.048933
v -0.226748 0.396836 -0.048933
v -0.237985 0.411246 -0.052066
v -0.239293 0.419849 -0.061142
v -0.246192 0.421638 -0.063230
v -0.246192 0.421638 -0.063230
v -0.248679 0.413994 -0.068461
v -0.246109 0.415172 -0.073911
v -0.246109 0.415172 -0.073911
v -0.241182 0.388117 -0.039276
v -0.249154 0.388678 -0.042562
v -0.249154 0.388678 -0.042562
v -0.247411 0.400430 -0.046160
v -0.247411 0.400430 -0.046160
v -0.232173 0.386202 -0.040478
v -0.247354 0.408668 -0.047655
v -0.247354 0.408668 -0.047655
v -0.247354 0.408668 -0.047655
v -0.252210 0.405081 -0.058482
v -0.252247 0.405238 -0.065539
v -0.249918 0.412311 -0.063022
v -0.248140 0.418298 -0.058421
v -0.248140 0.418298 -0.058421
v -0.248583 0.413394 -0.054429
v -0.248583 0.413394 -0.054429
v -0.249801 0.406719 -0.052293
v -0.244658 0.414608 -0.051688
v -0.244658 0.414608 -0.051688
v -0.251689 0.398613 -0.051038
v -0.254375 0.397530 -0.058388
v -0.254418 0.396783 -0.066589
v -0.254071 0.388504 -0.049478
v -0.256853 0.388219 -0.057853
v -0.256147 0.387575 -0.066535
v -0.253043 0.386647 -0.074667
v -0.252016 0.396318 -0.074187
v -0.260477 0.376827 -0.057443
v -0.259633 0.376444 -0.066516
v -0.255552 0.375318 -0.074886
v -0.255552 0.375318 -0.074886
v -0.248688 0.373748 -0.081153
v -0.248688 0.373748 -0.081153
v -0.246475 0.385731 -0.080657
v -0.246475 0.385731 -0.080657
v -0.265211 0.359266 -0.067695
v -0.260941 0.358513 -0.076222
v -0.260941 0.358513 -0.076222
v -0.253782 0.356884 -0.082519
v -0.245556 0.354547 -0.084284
v -0.240065 0.371619 -0.082698
v -0.265348 0.342417 -0.076927
v -0.265348 0.342417 -0.076927
v -0.258813 0.340548 -0.083148
v -0.258813 0.340548 -0.083148
v -0.251605 0.338185 -0.084513
v -0.244632 0.335788 -0.079602
v -0.244632 0.335788 -0.079602
v -0.238308 0.352085 -0.079345
v -0.238308 0.352085 -0.079345
v -0.262482 0.328869 -0.083515
v -0.262482 0.328869 -0.083515
v -0.255418 0.326451 -0.084205
v -0.248753 0.324032 -0.079701
v -0.248753 0.324032 -0.079701
v -0.243984 0.321938 -0.072895
v -0.239564 0.333876 -0.072702
v -0.258544 0.316571 -0.084431
v -0.252493 0.313963 -0.080101
v -0.252493 0.313963 -0.080101
v -0.247790 0.311556 -0.073455
v -0.245474 0.309615 -0.064960
v -0.241808 0.320510 -0.064499
v -0.254568 0.305573 -0.082376
v -0.254568 0.305573 -0.082376
v -0.249474 0.302598 -0.075375
v -0.247228 0.299575 -0.065980
v -0.248524 0.298635 -0.055790
v -0.246384 0.308909 -0.056044
v -0.246433 0.296495 -0.078935
v -0.246433 0.296495 -0.078935
v -0.244081 0.292050 -0.067414
v -0.244081 0.292050 -0.067414
v -0.246242 0.290409 -0.054061
v -0.246242 0.290409 -0.054061
v -0.251840 0.291883 -0.043455
v -0.251840 0.291883 -0.043455
v -0.252756 0.299629 -0.047694
v -0.252756 0.299629 -0.047694
v -0.236846 0.288477 -0.068178
v -0.239048 0.286188 -0.051649
v -0.247158 0.286942 -0.037194
v -0.258449 0.290893 -0.029720
v -0.259821 0.294008 -0.038650
v -0.259821 0.294008 -0.038650
v -0.259821 0.294008 -0.038650
v -0.231849 0.283963 -0.048668
v -0.231849 0.283963 -0.048668
v -0.241900 0.285172 -0.032535
v -0.241900 0.285172 -0.032535
v -0.241900 0.285172 -0.032535
v -0.255473 0.290904 -0.022686
v -0.255473 0.290904 -0.022686
v -0.271136 0.295364 -0.019205
v -0.271136 0.295364 -0.019205
v -0.271055 0.295151 -0.028564
v -0.237049 0.291326 -0.029613
v -0.237049 0.291326 -0.029613
v -0.251558 0.295629 -0.017945
v -0.269400 0.301276 -0.012970
v -0.286965 0.307555 -0.020362
v -0.286965 0.307555 -0.020362
v -0.287403 0.301271 -0.024522
v -0.287403 0.301271 -0.024522
v -0.287403 0.301271 -0.024522
v -0.247056 0.303976 -0.014617
v -0.266020 0.310762 -0.011324
v -0.283097 0.317655 -0.018359
v -0.283097 0.317655 -0.018359
v -0.295466 0.324603 -0.033725
v -0.295466 0.324603 -0.033725
v -0.298999 0.315106 -0.035943
v -0.260996 0.323809 -0.009313
v -0.278013 0.331109 -0.016356
v -0.290936 0.337701 -0.031671
v -0.290936 0.337701 -0.031671
v -0.298286 0.342316 -0.053230
v -0.302002 0.329879 -0.054689
v -0.272311 0.347730 -0.014093
v -0.285770 0.354511 -0.029980
v -0.285770 0.354511 -0.029980
v -0.293662 0.358814 -0.052381
v -0.292348 0.359399 -0.076905
v -0.296549 0.343414 -0.077207
v -0.276193 0.384298 -0.028078
v -0.276193 0.384298 -0.028078
v -0.285192 0.387200 -0.052008
v -0.284595 0.386478 -0.076968
v -0.272777 0.383358 -0.097189
v -0.272777 0.383358 -0.097189
v -0.280995 0.356439 -0.096905
v -0.280995 0.356439 -0.096905
v -0.270291 0.433488 -0.052990
v -0.269937 0.433751 -0.078242
v -0.258389 0.430358 -0.098301
v -0.258389 0.430358 -0.098301
v -0.240002 0.425343 -0.110422
v -0.254599 0.378305 -0.109849
v -0.256732 0.481006 -0.077150
v -0.244896 0.478844 -0.097392
v -0.244896 0.478844 -0.097392
v -0.227771 0.474049 -0.109343
v -0.208071 0.468795 -0.112187
v -0.218640 0.419976 -0.113522
v -0.233478 0.525454 -0.099264
v -0.233478 0.525454 -0.099264
v -0.214906 0.517765 -0.112854
v -0.197409 0.509776 -0.116619
v -0.181169 0.502781 -0.113032
v -0.189222 0.464846 -0.105055
v -0.189222 0.464846 -0.105055
v -0.187546 0.552527 -0.121079
v -0.174846 0.549312 -0.124351
v -0.163700 0.546372 -0.121421
v -0.163700 0.546372 -0.121421
v -0.166533 0.500810 -0.102824
v -0.166533 0.500810 -0.102824
v -0.185356 0.592726 -0.109066
v -0.174660 0.592351 -0.112581
v -0.164768 0.592058 -0.114165
v -0.164768 0.592058 -0.114165
v -0.175990 0.620491 -0.082944
v -0.175990 0.620491 -0.082944
v -0.166367 0.621413 -0.083896
v -0.166367 0.621413 -0.083896
v -0.166367 0.621413 -0.083896
v -0.161216 0.615030 -0.080910
v -0.160645 0.587724 -0.107156
v -0.160655 0.545497 -0.110694
v -0.160234 0.582379 -0.099006
v -0.160497 0.606461 -0.077848
v -0.160268 0.597203 -0.073446
v -0.160171 0.577216 -0.090903
v -0.160508 0.587510 -0.068493
v -0.160378 0.571897 -0.081940
v -0.160405 0.547699 -0.080135
v -0.161446 0.548682 -0.073730
v -0.161446 0.548682 -0.073730
v -0.161446 0.548682 -0.073730
v -0.161195 0.535379 -0.057361
v -0.161195 0.535379 -0.057361
v -0.160530 0.528823 -0.058273
v -0.161191 0.567584 -0.075271
v -0.161191 0.567584 -0.075271
v -0.162403 0.580289 -0.064791
v -0.162403 0.580289 -0.064791
v -0.162403 0.580289 -0.064791
v -0.171029 0.576698 -0.063092
v -0.171029 0.576698 -0.063092
v -0.170080 0.565189 -0.072504
v -0.169499 0.548442 -0.071053
v -0.169499 0.548442 -0.071053
v -0.174659 0.537909 -0.056228
v -0.168269 0.537252 -0.057028
v -0.172968 0.539631 -0.041932
v -0.172968 0.539631 -0.041932
v -0.166684 0.538664 -0.041524
v -0.166684 0.538664 -0.041524
v -0.161417 0.535030 -0.039435
v -0.161417 0.535030 -0.039435
v -0.161417 0.535030 -0.039435
v -0.160553 0.529291 -0.035305
v -0.164729 0.549883 -0.031486
v -0.164729 0.549883 -0.031486
v -0.160665 0.547532 -0.025508
v -0.160665 0.547532 -0.025508
v -0.160268 0.545539 -0.017373
v -0.160173 0.543520 -0.006801
v -0.160281 0.567181 -0.024001
v -0.160200 0.571150 -0.015481
v -0.160328 0.574999 -0.005877
v -0.160981 0.578552 0.003003
v -0.160526 0.542397 0.003973
v -0.160197 0.591694 -0.027484
v -0.160286 0.599972 -0.021065
v -0.160708 0.606880 -0.015202
v -0.166034 0.612325 -0.010783
v -0.166034 0.612325 -0.010783
v -0.165084 0.581050 0.010043
v -0.165084 0.581050 0.010043
v -0.165084 0.581050 0.010043
v -0.160376 0.611921 -0.047279
v -0.160974 0.620847 -0.045872
v -0.166413 0.626896 -0.045414
v -0.166413 0.626896 -0.045414
v -0.176243 0.626239 -0.045725
v -0.175502 0.611849 -0.011223
v -0.186244 0.610327 -0.012277
v -0.185110 0.581966 0.007818
v -0.185110 0.581966 0.007818
v -0.174502 0.581335 0.009319
v -0.174502 0.581335 0.009319
v -0.187632 0.623759 -0.045878
v -0.202101 0.617172 -0.045801
v -0.202101 0.617172 -0.045801
v -0.186785 0.618083 -0.081354
v -0.186785 0.618083 -0.081354
v -0.220352 0.602143 -0.046481
v -0.220352 0.602143 -0.046481
v -0.239942 0.572036 -0.047151
v -0.248166 0.529234 -0.076292
v -0.253283 0.528458 -0.047910
v -0.246814 0.524329 -0.021856
v -0.246814 0.524329 -0.021856
v -0.259571 0.479246 -0.051506
v -0.251834 0.475787 -0.027059
v -0.251834 0.475787 -0.027059
v -0.236856 0.472603 -0.009975
v -0.236856 0.472603 -0.009975
v -0.230374 0.518151 -0.002573
v -0.230374 0.518151 -0.002573
v -0.218151 0.469742 -0.001490
v -0.209221 0.509916 0.006738
v -0.196488 0.467481 -0.004544
v -0.196488 0.467481 -0.004544
v -0.189649 0.503162 0.004274
v -0.184741 0.543850 0.013849
v -0.172294 0.540916 0.015627
v -0.161606 0.540689 0.012619
v -0.161606 0.540689 0.012619
v -0.227661 0.421813 -0.000777
v -0.207627 0.417328 -0.004221
v -0.207627 0.417328 -0.004221
v -0.192121 0.414973 -0.019019
v -0.223950 0.366785 -0.005728
v -0.223950 0.366785 -0.005728
v -0.208570 0.363273 -0.019478
v -0.208570 0.363273 -0.019478
v -0.199931 0.361810 -0.039517
v -0.183652 0.414908 -0.039045
v -0.197474 0.361123 -0.063878
v -0.181001 0.414040 -0.064809
v -0.201960 0.361499 -0.086753
v -0.185492 0.412910 -0.087424
v -0.174973 0.464383 -0.087714
v -0.174973 0.464383 -0.087714
v -0.199038 0.415491 -0.105584
v -0.199038 0.415491 -0.105584
v -0.215053 0.365049 -0.104038
v -0.215053 0.365049 -0.104038
v -0.233885 0.371445 -0.112340
v -0.225690 0.337906 -0.102983
v -0.225690 0.337906 -0.102983
v -0.244392 0.344437 -0.111447
v -0.264150 0.351339 -0.109151
v -0.250125 0.330325 -0.111122
v -0.269196 0.337018 -0.109028
v -0.285334 0.341287 -0.096933
v -0.285334 0.341287 -0.096933
v -0.273261 0.325309 -0.109058
v -0.288457 0.329904 -0.097063
v -0.288457 0.329904 -0.097063
v -0.299362 0.331832 -0.077975
v -0.290502 0.321061 -0.096965
v -0.290502 0.321061 -0.096965
v -0.301202 0.322822 -0.078955
v -0.304435 0.320427 -0.056641
v -0.298910 0.315133 -0.078353
v -0.298910 0.315133 -0.078353
v -0.302648 0.312854 -0.058506
v -0.302648 0.312854 -0.058506
v -0.298574 0.308506 -0.039041
v -0.298574 0.308506 -0.039041
v -0.295664 0.310148 -0.059622
v -0.292002 0.305870 -0.044018
v -0.282652 0.300213 -0.032758
v -0.284527 0.304831 -0.049052
v -0.277723 0.300598 -0.040743
v -0.277723 0.300598 -0.040743
v -0.269091 0.296332 -0.037295
v -0.269091 0.296332 -0.037295
v -0.272719 0.306418 -0.045034
v -0.272719 0.306418 -0.045034
v -0.265775 0.303565 -0.042138
v -0.258725 0.301540 -0.043131
v -0.258725 0.301540 -0.043131
v -0.262581 0.313552 -0.042878
v -0.255804 0.311360 -0.044244
v -0.250369 0.309602 -0.048814
v -0.250369 0.309602 -0.048814
v -0.252059 0.322079 -0.043820
v -0.245834 0.320406 -0.048451
v -0.245834 0.320406 -0.048451
v -0.242487 0.319979 -0.055933
v -0.241274 0.332853 -0.047579
v -0.241274 0.332853 -0.047579
v -0.237849 0.332327 -0.055269
v -0.237188 0.332748 -0.064145
v -0.230926 0.349633 -0.054102
v -0.230383 0.349495 -0.063405
v -0.233098 0.350393 -0.072253
v -0.224002 0.366992 -0.063146
v -0.226187 0.367625 -0.071991
v -0.231847 0.369451 -0.079175
v -0.231847 0.369451 -0.079175
v -0.222362 0.382442 -0.071856
v -0.222362 0.382442 -0.071856
v -0.228785 0.383298 -0.078913
v -0.228785 0.383298 -0.078913
v -0.237666 0.384488 -0.082366
v -0.229204 0.394934 -0.077806
v -0.237552 0.395349 -0.081603
v -0.246653 0.395968 -0.080551
v -0.246653 0.395968 -0.080551
v -0.246411 0.405026 -0.078585
v -0.246411 0.405026 -0.078585
v -0.250321 0.405317 -0.072446
v -0.223095 0.395427 -0.071159
v -0.223095 0.395427 -0.071159
v -0.220531 0.396186 -0.063247
v -0.226891 0.406668 -0.062792
v -0.226891 0.406668 -0.062792
v -0.218952 0.382226 -0.063507
v -0.220114 0.382970 -0.054207
v -0.221813 0.396785 -0.055058
v -0.224565 0.367747 -0.053863
v -0.227942 0.369180 -0.045477
v -0.227942 0.369180 -0.045477
v -0.224911 0.384375 -0.046244
v -0.224911 0.384375 -0.046244
v -0.234518 0.350467 -0.045841
v -0.234518 0.350467 -0.045841
v -0.241248 0.352013 -0.040391
v -0.234966 0.371393 -0.039391
v -0.247720 0.334357 -0.042555
v -0.255336 0.336628 -0.041568
v -0.249590 0.354103 -0.039388
v -0.259301 0.324394 -0.042885
v -0.266071 0.326853 -0.045570
v -0.262476 0.339094 -0.044847
v -0.269103 0.315989 -0.045921
v -0.274269 0.318405 -0.051997
v -0.274269 0.318405 -0.051997
v -0.271009 0.329066 -0.051869
v -0.271009 0.329066 -0.051869
v -0.278235 0.309513 -0.051471
v -0.278235 0.309513 -0.051471
v -0.278235 0.309513 -0.051471
v -0.280154 0.311495 -0.060842
v -0.280154 0.311495 -0.060842
v -0.277056 0.320385 -0.060387
v -0.286864 0.307876 -0.060279
v -0.284821 0.309093 -0.072968
v -0.279386 0.312840 -0.071137
v -0.279386 0.312840 -0.071137
v -0.292549 0.311951 -0.075709
v -0.284426 0.310935 -0.089031
v -0.279143 0.308484 -0.083043
v -0.289750 0.314321 -0.094517
v -0.289750 0.314321 -0.094517
v -0.276883 0.310478 -0.105183
v -0.276883 0.310478 -0.105183
v -0.276883 0.310478 -0.105183
v -0.274568 0.308189 -0.096948
v -0.276203 0.316622 -0.108869
v -0.276203 0.316622 -0.108869
v -0.258136 0.310885 -0.110837
v -0.260649 0.305641 -0.107168
v -0.260649 0.305641 -0.107168
v -0.254672 0.319013 -0.110979
v -0.236881 0.312273 -0.102223
v -0.236881 0.312273 -0.102223
v -0.240990 0.304473 -0.102311
v -0.231938 0.323053 -0.102310
v -0.231938 0.323053 -0.102310
v -0.218885 0.317492 -0.085539
v -0.224056 0.305950 -0.086232
v -0.224056 0.305950 -0.086232
v -0.212612 0.333463 -0.085923
v -0.208624 0.331405 -0.063663
v -0.215208 0.314554 -0.064190
v -0.218496 0.313004 -0.043263
v -0.223477 0.299965 -0.045172
v -0.219970 0.301781 -0.065629
v -0.211776 0.330121 -0.041320
v -0.220729 0.330270 -0.022321
v -0.220729 0.330270 -0.022321
v -0.227201 0.313174 -0.024727
v -0.227201 0.313174 -0.024727
v -0.242086 0.316855 -0.011863
v -0.232443 0.300246 -0.027208
v -0.232443 0.300246 -0.027208
v -0.235842 0.333667 -0.009357
v -0.254801 0.340011 -0.006807
v -0.243587 0.372440 -0.002757
v -0.261870 0.378730 -0.010787
v -0.261870 0.378730 -0.010787
v -0.246318 0.426500 -0.009764
v -0.246318 0.426500 -0.009764
v -0.260845 0.430332 -0.027922
v -0.227334 0.290454 -0.046873
v -0.228958 0.286646 -0.068660
v -0.228958 0.286646 -0.068660
v -0.223387 0.292377 -0.067476
v -0.234221 0.291923 -0.086792
v -0.234221 0.291923 -0.086792
v -0.234221 0.291923 -0.086792
v -0.228260 0.297636 -0.087321
v -0.228260 0.297636 -0.087321
v -0.245108 0.298897 -0.100821
v -0.245108 0.298897 -0.100821
v -0.240162 0.293233 -0.083351
v -0.249430 0.298814 -0.094821
v -0.262021 0.303830 -0.099679
v -0.253341 0.300756 -0.087948
v -0.253341 0.300756 -0.087948
v -0.253341 0.300756 -0.087948
v -0.262433 0.304054 -0.091661
v -0.262433 0.304054 -0.091661
v -0.271584 0.306669 -0.089465
v -0.271584 0.306669 -0.089465
v -0.261389 0.308267 -0.085831
v -0.268180 0.310514 -0.084756
v -0.268180 0.310514 -0.084756
v -0.274674 0.312289 -0.079331
v -0.274674 0.312289 -0.079331
v -0.274674 0.312289 -0.079331
v -0.265481 0.318946 -0.083715
v -0.271715 0.320756 -0.078234
v -0.271715 0.320756 -0.078234
v -0.276334 0.321413 -0.070228
v -0.268654 0.330733 -0.077489
v -0.268654 0.330733 -0.077489
v -0.272852 0.331527 -0.069277
v -0.273796 0.330852 -0.060059
v -0.269595 0.343204 -0.068746
v -0.270406 0.342836 -0.059479
v -0.267796 0.341325 -0.051083
v -0.267796 0.341325 -0.051083
v -0.266089 0.359176 -0.058185
v -0.263623 0.358216 -0.049028
v -0.263623 0.358216 -0.049028
v -0.257525 0.356303 -0.042402
v -0.257525 0.356303 -0.042402
v -0.257602 0.376331 -0.048588
v -0.252064 0.375382 -0.041404
v -0.252064 0.375382 -0.041404
v -0.243810 0.373619 -0.037860
v -0.228279 0.406863 -0.056331
v -0.228279 0.406863 -0.056331
v -0.235206 0.413431 -0.056548
v -0.233279 0.414080 -0.062111
v -0.233279 0.414080 -0.062111
v -0.242009 0.417946 -0.056527
v -0.160165 0.602524 -0.048690
v -0.160482 0.583937 -0.032872
v -0.160399 0.591656 -0.049764
v -0.162905 0.576780 -0.037873
v -0.162905 0.576780 -0.037873
v -0.162905 0.576780 -0.037873
v -0.161095 0.583638 -0.050509
v -0.161095 0.583638 -0.050509
v -0.171740 0.575112 -0.038961
v -0.171740 0.575112 -0.038961
v -0.171208 0.579205 -0.050638
v -0.182059 0.574506 -0.038846
v -0.182059 0.574506 -0.038846
v -0.182180 0.578803 -0.050190
v -0.181485 0.575802 -0.062591
v -0.181485 0.575802 -0.062591
v -0.194587 0.578794 -0.049727
v -0.193508 0.575689 -0.063315
v -0.193508 0.575689 -0.063315
v -0.209131 0.572259 -0.048669
v -0.209131 0.572259 -0.048669
v -0.206892 0.571446 -0.061102
v -0.206892 0.571446 -0.061102
v -0.206892 0.571446 -0.061102
v -0.217564 0.556431 -0.047046
v -0.216574 0.557507 -0.058199
v -0.222636 0.540468 -0.045982
v -0.221881 0.542034 -0.057588
v -0.217930 0.542472 -0.067783
v -0.225161 0.528469 -0.059213
v -0.220308 0.529332 -0.070311
v -0.212252 0.529685 -0.077484
v -0.212252 0.529685 -0.077484
v -0.211466 0.541801 -0.074590
v -0.211466 0.541801 -0.074590
v -0.203872 0.529371 -0.078892
v -0.204101 0.539822 -0.075419
v -0.198939 0.527281 -0.073231
v -0.198939 0.527281 -0.073231
v -0.199195 0.537764 -0.071497
v -0.199195 0.537764 -0.071497
v -0.199195 0.537764 -0.071497
v -0.197873 0.525611 -0.064032
v -0.196080 0.535229 -0.063760
v -0.196080 0.535229 -0.063760
v -0.197380 0.527103 -0.052871
v -0.193809 0.534853 -0.053143
v -0.193809 0.534853 -0.053143
v -0.187798 0.537328 -0.053839
v -0.181495 0.537821 -0.054835
v -0.192476 0.538182 -0.041620
v -0.192476 0.538182 -0.041620
v -0.192476 0.538182 -0.041620
v -0.186582 0.540533 -0.041749
v -0.186582 0.540533 -0.041749
v -0.179852 0.540396 -0.041542
v -0.179852 0.540396 -0.041542
v -0.187426 0.550175 -0.032604
v -0.179825 0.550736 -0.033154
v -0.172052 0.550543 -0.032645
v -0.180868 0.563864 -0.032343
v -0.171869 0.564485 -0.031994
v -0.163687 0.565323 -0.030271
v -0.163687 0.565323 -0.030271
v -0.190752 0.563160 -0.031315
v -0.193530 0.574557 -0.037775
v -0.193530 0.574557 -0.037775
v -0.200467 0.558877 -0.030737
v -0.206155 0.567513 -0.037353
v -0.206155 0.567513 -0.037353
v -0.206155 0.567513 -0.037353
v -0.207613 0.547775 -0.029242
v -0.214748 0.553537 -0.036263
v -0.214748 0.553537 -0.036263
v -0.219000 0.537603 -0.034706
v -0.219000 0.537603 -0.034706
v -0.221682 0.522921 -0.033660
v -0.221682 0.522921 -0.033660
v -0.226172 0.526458 -0.046248
v -0.224017 0.510253 -0.035038
v -0.224017 0.510253 -0.035038
v -0.229055 0.513160 -0.048165
v -0.227915 0.514956 -0.061915
v -0.230964 0.499818 -0.050863
v -0.229752 0.500762 -0.064279
v -0.223399 0.500443 -0.075539
v -0.223399 0.500443 -0.075539
v -0.221782 0.515525 -0.073834
v -0.221782 0.515525 -0.073834
v -0.213075 0.499067 -0.082949
v -0.212255 0.515509 -0.082140
v -0.212255 0.515509 -0.082140
v -0.200483 0.497964 -0.083393
v -0.200898 0.514974 -0.085327
v -0.191371 0.498050 -0.075879
v -0.191371 0.498050 -0.075879
v -0.192308 0.514856 -0.076439
v -0.192308 0.514856 -0.076439
v -0.203114 0.483526 -0.081095
v -0.194547 0.483336 -0.072925
v -0.194547 0.483336 -0.072925
v -0.205312 0.470739 -0.079637
v -0.196728 0.470432 -0.072110
v -0.196728 0.470432 -0.072110
v -0.193495 0.470551 -0.061511
v -0.194652 0.470629 -0.050145
v -0.199669 0.470172 -0.039610
v -0.199669 0.470172 -0.039610
v -0.212523 0.458428 -0.035018
v -0.209505 0.470385 -0.032286
v -0.206541 0.482123 -0.031396
v -0.221798 0.472559 -0.035033
v -0.221798 0.472559 -0.035033
v -0.219287 0.483851 -0.032216
v -0.216221 0.495281 -0.029175
v -0.228876 0.485916 -0.040820
v -0.228876 0.485916 -0.040820
v -0.226326 0.497908 -0.038029
v -0.226326 0.497908 -0.038029
v -0.232424 0.487331 -0.053282
v -0.231045 0.487658 -0.065789
v -0.225991 0.473865 -0.075472
v -0.225991 0.473865 -0.075472
v -0.224791 0.486674 -0.075829
v -0.224791 0.486674 -0.075829
v -0.216776 0.471877 -0.081339
v -0.214981 0.484965 -0.082030
v -0.226409 0.461613 -0.072327
v -0.226409 0.461613 -0.072327
v -0.226409 0.461613 -0.072327
v -0.224121 0.452751 -0.064205
v -0.224121 0.452751 -0.064205
v -0.224297 0.461910 -0.039766
v -0.224297 0.461910 -0.039766
v -0.194517 0.547555 -0.032435
v -0.194517 0.547555 -0.032435
v -0.199759 0.540222 -0.031804
v -0.199759 0.540222 -0.031804
v -0.197371 0.532677 -0.041321
vn 0.4676 -0.1936 0.8625
vn 0.0201 -0.0525 0.9984
vn 0.2606 -0.5195 0.8138
vn 0.7372 -0.3442 0.5815
vn -0.1306 -0.0795 0.9882
vn -0.1980 0.6425 0.7403
vn 0.0137 0.5259 0.8504
vn 0.0625 -0.2220 0.9730
vn -0.4149 0.2911 0.8620
vn -0.4509 0.7013 0.5522
vn -0.8373 0.0919 -0.5390
vn -0.9442 -0.2330 -0.2329
vn -0.9864 -0.0049 -0.1644
vn -0.7868 0.2555 -0.5618
vn -0.8372 0.0919 -0.5391
vn -0.7868 0.2555 -0.5619
vn -0.2781 0.2916 -0.9152
vn -0.3748 0.1485 -0.9151
vn -0.6637 -0.2532 -0.7038
vn -0.6674 -0.2083 -0.7149
vn -0.9534 -0.2908 -0.0807
vn 0.2386 -0.0967 -0.9663
vn 0.2098 -0.1815 -0.9608
vn -0.6674 -0.2083 -0.7150
vn 0.3144 0.0669 -0.9469
vn -0.9400 -0.3408 -0.0161
vn -0.9417 -0.3322 0.0536
vn -0.9934 0.0027 0.1149
vn -0.9633 0.2327 0.1335
vn -0.9382 0.2683 -0.2186
vn -0.7444 0.2944 -0.5994
vn 0.9975 -0.0700 0.0046
vn 0.9997 0.0217 0.0076
vn 1.0000 0.0085 -0.0021
vn 0.9973 -0.0694 0.0235
vn 0.9999 -0.0046 -0.0148
vn 0.9998 0.0101 0.0162
vn 0.9371 -0.2774 0.2121
vn 0.9696 -0.2329 -0.0753
vn 0.9797 -0.1585 -0.1226
vn 0.8557 -0.3262 0.4018
vn 0.9793 0.1951 -0.0538
vn 0.9976 0.0123 -0.0681
vn 0.8790 0.0810 -0.4700
vn 0.9065 0.2697 -0.3249
vn 0.9296 0.2844 0.2343
vn 0.9360 0.0062 0.3519
vn 0.8641 0.5018 -0.0389
vn -0.2750 0.7538 0.5968
vn 0.2995 0.8102 0.5038
vn 0.0833 0.9866 0.1403
vn -0.5475 0.7868 0.2848
vn -0.3724 0.4605 0.8058
vn 0.3009 0.4273 0.8526
vn -0.7843 0.4546 0.4222
vn -0.7775 0.6084 -0.1594
vn -0.8918 0.4042 -0.2032
vn -0.8987 0.4288 0.0917
vn -0.7106 0.7029 0.0325
vn -0.5025 0.7358 -0.4540
vn -0.6657 0.4410 -0.6020
vn -0.7105 0.7030 0.0325
vn -0.2345 0.9579 -0.1657
vn 0.4223 -0.4298 0.7981
vn 0.6976 -0.3454 0.6278
vn 0.2495 0.9088 -0.3344
vn 0.5840 0.8098 -0.0558
vn 0.7170 0.5932 -0.3662
vn 0.1739 0.7571 -0.6297
vn -0.6292 0.4800 -0.6113
vn -0.6677 0.3017 -0.6805
vn -0.8525 0.3916 -0.3463
vn -0.7091 0.6206 -0.3347
vn -0.6292 0.4800 -0.6114
vn -0.4604 0.5128 -0.7246
vn -0.4358 0.2085 -0.8755
vn -0.6677 0.3017 -0.6806
vn -0.5079 0.7766 -0.3728
vn -0.4604 0.5129 -0.7246
vn -0.5737 0.3956 0.7172
vn -0.3489 0.3998 0.8476
vn -0.4494 0.7134 0.5376
vn -0.6812 0.5753 0.4528
vn -0.5901 0.2000 0.7821
vn -0.2739 0.0657 0.9595
vn -0.3489 0.3997 0.8476
vn -0.8287 0.3429 0.4423
vn -0.5902 0.2000 0.7821
vn -0.5237 -0.5642 0.6382
vn -0.6732 -0.6471 0.3580
vn -0.5596 -0.7677 0.3123
vn -0.3272 -0.5557 0.7643
vn -0.5375 -0.4490 0.7138
vn -0.7434 -0.5285 0.4099
vn -0.1953 -0.3808 0.9038
vn -0.4437 -0.4981 -0.7450
vn -0.4269 -0.4015 -0.8103
vn -0.0250 -0.3786 -0.9252
vn -0.2182 -0.5044 -0.8354
vn -0.5433 -0.5482 -0.6359
vn -0.6574 -0.3731 -0.6547
vn -0.4070 -0.6152 -0.6752
vn -0.0099 -0.9505 0.3104
vn -0.5596 -0.7677 0.3122
vn -0.4581 -0.8371 -0.2991
vn 0.4701 -0.8802 -0.0644
vn -0.0099 -0.9506 0.3104
vn 0.4701 -0.8803 -0.0644
vn 0.8685 -0.4046 0.2865
vn 0.3773 -0.5772 0.7242
vn 0.0570 -0.2361 -0.9701
vn 0.5746 -0.2585 -0.7765
vn 0.5630 -0.2960 -0.7716
vn -0.4268 -0.1617 -0.8898
vn 0.4555 -0.4531 -0.7663
vn 0.9474 -0.2893 -0.1370
vn 0.9502 -0.2768 -0.1433
vn 0.9502 -0.2847 0.1264
vn 0.9440 -0.3249 0.0572
vn 0.6561 -0.6868 -0.3129
vn 0.7759 -0.4910 -0.3960
vn 0.8703 -0.2895 -0.3985
vn 0.1335 -0.7023 -0.6993
vn 0.5631 -0.2960 -0.7716
vn 0.8695 -0.2548 -0.4232
vn 0.9578 -0.2553 -0.1321
vn 0.9590 -0.2202 0.1785
vn 0.8528 -0.2716 -0.4460
vn 0.9551 -0.2734 -0.1142
vn 0.9458 -0.2280 0.2312
vn 0.8098 -0.1504 0.5671
vn 0.8549 -0.1638 0.4923
vn 0.9472 -0.3023 -0.1072
vn 0.9191 -0.2923 0.2644
vn 0.7610 -0.2424 0.6018
vn 0.4069 -0.1558 0.9001
vn 0.4266 -0.0807 0.9008
vn 0.9172 -0.2890 0.2743
vn 0.7468 -0.2613 0.6116
vn 0.7609 -0.2424 0.6019
vn 0.7467 -0.2613 0.6117
vn 0.4058 -0.1767 0.8967
vn -0.1741 0.0216 0.9845
vn -0.1414 -0.0046 0.9899
vn 0.7545 -0.2419 0.6101
vn 0.4095 -0.1466 0.9005
vn -0.1908 0.0616 0.9797
vn -0.6371 0.2280 0.7363
vn -0.6212 0.2149 0.7536
vn 0.3893 -0.1414 0.9102
vn -0.2197 0.0651 0.9734
vn -0.6438 0.2147 0.7345
vn -0.8391 0.2906 0.4598
vn -0.8315 0.3074 0.4627
vn -0.2419 -0.0228 0.9700
vn -0.6688 0.1030 0.7363
vn -0.8732 0.1823 0.4520
vn -0.9648 0.2412 0.1048
vn -0.9349 0.3336 0.1208
vn -0.7087 -0.3538 0.6104
vn -0.9174 -0.2323 0.3231
vn -0.9909 -0.1344 0.0044
vn -0.9481 -0.0952 -0.3033
vn -0.9258 0.2572 -0.2770
vn -0.6823 -0.7308 0.0203
vn -0.7123 -0.6876 -0.1409
vn -0.7040 -0.6632 -0.2541
vn -0.6150 -0.6758 -0.4063
vn -0.7709 -0.1418 -0.6210
vn -0.3531 -0.9167 -0.1872
vn -0.3474 -0.9246 -0.1564
vn -0.3688 -0.9238 -0.1031
vn -0.3348 -0.9398 -0.0689
vn -0.4226 -0.7312 -0.5355
vn 0.3276 -0.9406 0.0890
vn 0.1378 -0.9305 0.3395
vn -0.0744 -0.8873 0.4551
vn -0.3082 -0.8370 0.4522
vn -0.3249 -0.9412 -0.0928
vn 0.1377 -0.9305 0.3395
vn 0.5637 -0.5854 0.5827
vn 0.2160 -0.5616 0.7987
vn -0.2062 -0.4018 0.8922
vn -0.6428 -0.1834 0.7438
vn -0.6066 -0.7131 0.3515
vn 0.3163 -0.3577 0.8787
vn -0.1552 -0.1391 0.9780
vn -0.5749 0.0711 0.8151
vn -0.5750 0.0711 0.8151
vn -0.8371 0.1938 0.5116
vn -0.9003 -0.0252 0.4346
vn -0.6428 -0.1834 0.7437
vn -0.1589 -0.0968 0.9825
vn -0.5650 0.0823 0.8210
vn -0.8258 0.2017 0.5267
vn -0.8258 0.2017 0.5266
vn -0.9534 0.2587 0.1552
vn -0.9595 0.2483 0.1334
vn -0.5653 0.0927 0.8197
vn -0.8222 0.2121 0.5282
vn -0.9494 0.2671 0.1650
vn -0.9227 0.2626 -0.2823
vn -0.9232 0.2571 -0.2856
vn -0.8161 0.2447 0.5236
vn -0.9410 0.2901 0.1744
vn -0.9203 0.2748 -0.2785
vn -0.6959 0.2030 -0.6888
vn -0.7046 0.2077 -0.6785
vn -0.9509 0.2639 0.1615
vn -0.9200 0.2660 -0.2879
vn -0.6900 0.2005 -0.6955
vn -0.3308 0.0959 -0.9388
vn -0.3328 0.0874 -0.9389
vn -0.6959 0.2030 -0.6889
vn -0.9245 0.2085 -0.3192
vn -0.7013 0.1701 -0.6923
vn -0.7012 0.1701 -0.6924
vn -0.3624 0.0709 -0.9293
vn 0.0666 -0.0619 -0.9959
vn 0.1230 -0.0324 -0.9919
vn -0.7015 0.1763 -0.6906
vn -0.4118 0.0590 -0.9094
vn -0.0830 -0.1024 -0.9913
vn 0.3226 -0.2738 -0.9061
vn 0.5255 -0.2004 -0.8269
vn -0.2327 0.1034 -0.9670
vn 0.0574 -0.0001 -0.9984
vn 0.6600 -0.0836 -0.7466
vn 0.7857 -0.3028 -0.5395
vn -0.3027 0.5127 -0.8034
vn -0.1232 0.4940 -0.8607
vn 0.4944 0.4230 -0.7594
vn -0.1673 0.8848 -0.4348
vn 0.3776 0.8327 -0.4050
vn 0.4943 0.4230 -0.7594
vn 0.9255 0.3448 -0.1567
vn 0.9601 0.1445 -0.2396
vn 0.9787 -0.0501 -0.1990
vn 0.7857 -0.3028 -0.5394
vn 0.9995 0.0176 -0.0258
vn 0.9988 0.0443 -0.0204
vn 1.0000 0.0041 -0.0009
vn 1.0000 0.0022 0.0067
vn 0.9974 -0.0624 0.0358
vn 0.9972 -0.0219 0.0720
vn 0.9975 0.0288 0.0650
vn 0.8253 0.2562 0.5032
vn 0.8314 0.5249 0.1823
vn 0.9973 0.0680 0.0282
vn 0.8454 -0.1561 0.5109
vn 0.8375 -0.4664 0.2848
vn 0.8375 -0.4663 0.2848
vn 0.2734 -0.8093 0.5199
vn 0.2521 -0.2649 0.9307
vn 0.1815 0.4805 0.8580
vn 0.0483 0.9691 0.2419
vn 0.2199 0.9303 0.2935
vn 0.0990 0.8756 -0.4728
vn 0.4100 0.8232 -0.3927
vn 0.9191 0.3613 -0.1573
vn 0.9986 0.0476 -0.0216
vn 0.4100 0.8232 -0.3928
vn 0.5770 0.3085 -0.7562
vn 0.9641 0.0991 -0.2464
vn 0.9997 0.0099 -0.0240
vn 0.9999 0.0013 0.0163
vn 0.9804 -0.0491 -0.1906
vn 1.0000 -0.0010 -0.0064
vn 0.9994 0.0118 0.0330
vn 0.9601 0.1192 0.2530
vn 0.9915 0.0035 0.1303
vn 1.0000 -0.0012 -0.0012
vn 0.9993 0.0286 0.0248
vn 0.9248 0.2973 0.2372
vn 0.3898 0.7141 0.5815
vn 0.5046 0.3125 0.8048
vn 0.9989 0.0459 -0.0004
vn 0.9108 0.4097 0.0513
vn 0.3661 0.9233 0.1162
vn -0.1449 0.9825 0.1171
vn -0.1118 0.7695 0.6288
vn -0.1673 0.8849 -0.4347
vn -0.2440 0.7587 0.6040
vn -0.1737 0.3763 0.9101
vn -0.0486 0.3535 0.9342
vn -0.3080 0.9455 0.1051
vn -0.5175 0.8508 0.0911
vn -0.3218 0.8506 -0.4158
vn -0.3218 0.8506 -0.4159
vn -0.7407 0.6689 0.0632
vn -0.9071 0.4184 0.0460
vn -0.9084 0.2266 -0.3514
vn -0.9762 0.2078 0.0621
vn -0.8716 0.1370 0.4706
vn -0.9784 0.1746 0.1106
vn -0.8633 0.1097 0.4926
vn -0.8716 0.1370 0.4707
vn -0.6013 0.0407 0.7980
vn -0.6090 0.0297 0.7926
vn -0.1614 -0.0643 0.9848
vn -0.2191 -0.1205 0.9682
vn 0.3499 -0.2164 0.9114
vn 0.1059 -0.2827 0.9533
vn -0.0873 -0.0341 0.9956
vn 0.1184 -0.1152 0.9863
vn 0.7102 -0.0898 0.6983
vn 0.7101 -0.0898 0.6983
vn 0.6975 -0.3454 0.6278
vn -0.1222 0.0201 0.9923
vn 0.4205 -0.1243 0.8987
vn 0.3500 -0.2164 0.9114
vn 0.4206 -0.1243 0.8987
vn 0.7776 -0.2242 0.5875
vn 0.3828 -0.1922 0.9036
vn 0.7584 -0.2892 0.5842
vn 0.9131 -0.3196 0.2533
vn 0.9271 -0.2703 0.2597
vn 0.9444 -0.3263 -0.0393
vn 0.9605 -0.2716 -0.0607
vn 0.8573 -0.3094 -0.4115
vn 0.8759 -0.2391 -0.4190
vn 0.8571 -0.2643 -0.4421
vn 0.5827 -0.1570 -0.7974
vn 0.5667 -0.2237 -0.7930
vn 0.5666 -0.2237 -0.7931
vn 0.1252 -0.0725 -0.9895
vn 0.5526 -0.2476 -0.7958
vn 0.1294 -0.0820 -0.9882
vn -0.3383 0.0963 -0.9361
vn 0.1392 -0.0771 -0.9873
vn -0.3417 0.1062 -0.9338
vn -0.7125 0.2107 -0.6693
vn -0.7045 0.2077 -0.6786
vn -0.3514 0.1005 -0.9308
vn -0.7217 0.1992 -0.6629
vn -0.7125 0.2107 -0.6692
vn -0.9226 0.2439 -0.2989
vn -0.7645 -0.0490 -0.6428
vn -0.9436 -0.0018 -0.3311
vn -0.9982 0.0129 0.0585
vn -0.7391 -0.6102 -0.2852
vn -0.7948 -0.6010 -0.0844
vn -0.7801 -0.6076 0.1491
vn -0.3425 -0.9253 -0.1631
vn -0.3593 -0.9190 -0.1625
vn -0.3607 -0.9224 -0.1382
vn 0.0133 -0.9353 -0.3536
vn -0.1076 -0.8709 -0.4795
vn -0.2427 -0.8164 -0.5240
vn 0.3403 -0.4960 -0.7989
vn -0.0207 -0.3553 -0.9345
vn -0.4292 -0.2258 -0.8745
vn 0.0970 -0.0672 -0.9930
vn -0.3851 0.0892 -0.9185
vn -0.7360 0.2058 -0.6450
vn -0.3436 0.1828 -0.9212
vn -0.7192 0.3045 -0.6245
vn -0.7360 0.2058 -0.6449
vn -0.7193 0.3045 -0.6244
vn -0.9074 0.3440 -0.2413
vn -0.7195 0.3257 -0.6133
vn -0.9023 0.3642 -0.2307
vn -0.9261 0.3564 0.1237
vn -0.9054 0.3512 -0.2387
vn -0.9280 0.3551 0.1127
vn -0.8293 0.3140 0.4623
vn -0.9431 0.3169 0.1011
vn -0.8384 0.2699 0.4736
vn -0.5921 0.1582 0.7902
vn -0.8603 0.0715 0.5048
vn -0.5852 0.0172 0.8107
vn -0.1294 -0.0338 0.9910
vn -0.5782 -0.2230 0.7849
vn -0.1631 -0.1824 0.9696
vn 0.4498 -0.1483 0.8807
vn 0.4266 -0.0807 0.9009
vn 0.4374 -0.3374 0.8336
vn 0.8796 -0.2687 0.3925
vn -0.8321 -0.2645 0.4875
vn -0.9460 -0.3109 0.0919
vn -0.8050 -0.5923 0.0346
vn -0.7434 -0.5285 0.4098
vn -0.9895 0.0963 0.1081
vn -0.9461 0.0527 -0.3195
vn -0.8698 -0.3478 -0.3500
vn -0.9189 0.2887 -0.2688
vn -0.7560 0.2069 -0.6210
vn -0.7520 -0.0517 -0.6571
vn -0.7309 0.3058 -0.6101
vn -0.3495 0.2002 -0.9153
vn -0.3943 0.0906 -0.9145
vn -0.7195 0.3257 -0.6134
vn -0.3267 0.2176 -0.9197
vn 0.1552 0.0637 -0.9858
vn 0.1395 0.0549 -0.9887
vn 0.1370 0.0163 -0.9904
vn 0.5674 -0.1268 -0.8136
vn 0.5740 -0.0791 -0.8150
vn 0.5290 -0.2062 -0.8232
vn 0.8045 -0.2903 -0.5182
vn 0.8296 -0.2181 -0.5140
vn 0.6012 -0.6104 -0.5157
vn 0.7452 -0.6460 -0.1655
vn 0.9343 -0.3224 -0.1523
vn 0.3403 -0.4960 -0.7988
vn 0.0796 -0.9783 -0.1912
vn 0.0700 -0.9975 -0.0106
vn 0.7308 -0.6490 0.2115
vn -0.3445 -0.9257 -0.1561
vn -0.3565 -0.9244 -0.1359
vn -0.0175 -0.9882 0.1524
vn -0.6517 -0.6265 -0.4275
vn -0.4592 -0.6844 -0.5664
vn -0.3427 -0.9302 -0.1312
vn -0.4254 -0.1552 -0.8916
vn -0.4592 -0.6843 -0.5664
vn 0.0576 -0.2889 -0.9556
vn -0.1693 -0.7486 -0.6411
vn 0.1471 -0.0797 -0.9859
vn 0.5445 -0.2430 -0.8028
vn 0.4500 -0.3919 -0.8024
vn 0.5508 -0.2466 -0.7974
vn 0.8330 -0.3391 -0.4372
vn 0.8190 -0.3315 -0.4684
vn 0.5527 -0.2476 -0.7958
vn 0.8398 -0.3388 -0.4243
vn 0.9317 -0.3607 -0.0419
vn 0.9297 -0.3656 -0.0452
vn 0.8869 -0.3794 0.2636
vn 0.8727 -0.4025 0.2764
vn 0.9290 -0.3653 -0.0593
vn 0.8949 -0.3635 0.2590
vn 0.7304 -0.3410 0.5918
vn 0.7139 -0.3745 0.5917
vn 0.3300 -0.2804 0.9014
vn 0.6756 -0.4384 0.5928
vn 0.3466 -0.2444 0.9056
vn -0.1529 -0.0775 0.9852
vn 0.7583 -0.2892 0.5842
vn 0.3827 -0.1922 0.9037
vn -0.1389 -0.0282 0.9899
vn -0.5671 0.1355 0.8124
vn -0.5753 0.1433 0.8053
vn -0.8294 0.2180 0.5144
vn -0.8160 0.2447 0.5237
vn 0.7984 -0.5399 0.2665
vn 0.1378 -0.9304 0.3395
vn 0.3306 -0.9222 -0.2005
vn 0.8469 -0.5192 -0.1151
vn 0.2112 -0.8740 -0.4376
vn 0.7153 -0.4734 -0.5140
vn 0.7152 -0.4734 -0.5141
vn 0.2113 -0.8740 -0.4376
vn 0.0643 -0.8009 -0.5953
vn 0.8191 -0.3312 -0.4684
vn -0.3807 -0.9090 -0.1699
vn -0.3553 -0.9247 -0.1365
vn -0.3235 -0.9360 -0.1389
vn -0.1693 -0.7486 -0.6410
vn -0.5390 -0.8192 0.1959
vn -0.3427 -0.9026 0.2606
vn -0.1613 -0.9569 0.2414
vn -0.3427 -0.9026 0.2607
vn -0.3006 -0.4845 0.8215
vn 0.2018 -0.5781 0.7906
vn 0.2018 -0.5782 0.7906
vn 0.5529 -0.6200 0.5567
vn 0.3571 -0.1914 0.9142
vn 0.7194 -0.2957 0.6285
vn 0.9037 -0.3331 0.2691
vn 0.7465 -0.2578 0.6134
vn 0.9160 -0.2953 0.2715
vn 0.9497 -0.2773 -0.1457
vn 0.9229 -0.2689 0.2755
vn 0.9609 -0.2487 -0.1219
vn 0.8451 -0.1804 -0.5032
vn 0.8296 -0.2181 -0.5139
vn 0.9562 -0.2718 -0.1089
vn 0.8438 -0.2042 -0.4963
vn 0.8451 -0.1804 -0.5033
vn 0.5647 -0.0884 -0.8206
vn 0.5647 -0.0884 -0.8205
vn 0.8421 -0.2584 -0.4733
vn 0.5693 -0.1642 -0.8055
vn 0.5693 -0.1642 -0.8056
vn 0.1054 -0.0385 -0.9937
vn 0.5747 -0.2585 -0.7765
vn 0.4095 -0.1466 0.9004
vn -0.5390 -0.8192 0.1960
vn -0.7074 -0.5962 -0.3797
vn -0.5705 -0.6649 -0.4821
vn -0.7174 -0.6916 -0.0835
vn -0.1685 -0.8018 -0.5733
vn -0.7174 -0.6916 -0.0834
vn 0.1335 -0.7022 -0.6993
vn 0.7759 -0.4911 -0.3960
vn -0.7015 0.1763 -0.6905
vn 1.0000 0.0019 -0.0025
vn 0.9934 -0.0880 -0.0730
vn 0.9963 -0.0858 -0.0096
vn 0.7416 -0.5177 -0.4268
vn 0.8402 -0.5399 -0.0504
vn 0.7416 -0.5177 -0.4267
vn 0.1596 -0.7667 -0.6219
vn 0.2205 -0.9721 -0.0798
vn 0.2734 -0.8093 0.5198
vn -0.0045 -0.7767 -0.6299
vn 0.0209 -0.9978 -0.0623
vn 0.0705 -0.8235 0.5629
vn 0.2016 -0.9762 -0.0804
vn 0.0826 -0.8411 0.5346
vn 0.0826 -0.8410 0.5346
vn 0.6600 -0.7418 -0.1191
vn 0.5550 -0.7426 0.3749
vn 0.8996 -0.4105 -0.1492
vn 0.8831 -0.4106 0.2270
vn 0.9493 -0.2678 -0.1647
vn 0.9396 -0.2825 0.1931
vn 0.8078 -0.2707 0.5236
vn 0.9485 -0.2365 0.2108
vn 0.7947 -0.2441 0.5558
vn 0.4259 -0.2829 0.8594
vn 0.4482 -0.2226 0.8658
vn 0.4677 -0.1936 0.8624
vn -0.2973 -0.3516 0.8877
vn -0.2286 -0.1009 0.9683
vn -0.8616 -0.3002 0.4093
vn -0.7344 0.1563 0.6605
vn -0.8616 -0.3002 0.4092
vn -0.9770 -0.1896 0.0978
vn -0.8351 0.4501 0.3163
vn -0.4509 0.7013 0.5521
vn -0.9999 0.0019 -0.0113
vn -0.7324 0.6809 -0.0016
vn -0.3018 0.9513 0.0629
vn -0.0697 0.9859 0.1523
vn -0.5683 0.6851 -0.4557
vn -0.1844 0.8380 -0.5136
vn 0.0018 0.8582 -0.5133
vn -0.1844 0.8379 -0.5137
vn -0.1214 0.3614 -0.9245
vn -0.0077 0.3698 -0.9291
vn 0.1193 0.3627 -0.9242
vn -0.0180 -0.2473 -0.9688
vn 0.1310 -0.2562 -0.9577
vn 0.6657 -0.1955 -0.7201
vn 0.5771 0.3084 -0.7562
vn 0.1596 -0.7666 -0.6220
vn -0.0045 -0.7766 -0.6299
vn -0.0009 -0.2499 -0.9683
vn 0.1438 -0.7597 -0.6341
vn 0.1478 -0.2305 -0.9618
vn 0.5109 -0.5892 -0.6260
vn 0.1438 -0.7598 -0.6341
vn 0.1864 -0.1885 -0.9642
vn 0.7219 -0.3649 -0.5879
vn 0.7220 -0.3649 -0.5878
vn 0.7804 -0.2268 -0.5827
vn 0.7824 -0.1281 -0.6095
vn 0.9632 -0.2038 -0.1751
vn 0.7980 -0.0528 -0.6004
vn 0.9761 -0.1458 -0.1609
vn 0.9478 -0.1933 0.2536
vn 0.9853 -0.1103 -0.1305
vn 0.9451 -0.1424 0.2940
vn 0.7369 -0.1132 0.6664
vn 0.7648 -0.1923 0.6149
vn 0.7369 -0.1132 0.6665
vn 0.3325 0.0001 0.9431
vn 0.4067 -0.1736 0.8969
vn -0.3430 0.1187 0.9318
vn -0.2993 -0.1958 0.9339
vn -0.8498 0.0990 0.5177
vn -0.8634 -0.2694 0.4266
vn -0.8634 -0.2694 0.4265
vn -0.3747 0.1715 0.9112
vn -0.8164 0.2266 0.5311
vn -0.8165 0.2266 0.5311
vn -0.3996 0.2088 0.8926
vn -0.8160 0.2599 0.5163
vn -0.8161 0.2599 0.5162
vn -0.9507 0.2881 0.1147
vn -0.9244 0.2978 -0.2382
vn -0.7328 0.2752 -0.6224
vn -0.7327 0.2752 -0.6225
vn -0.6656 0.4410 -0.6021
vn -0.0232 0.4670 -0.8840
vn -0.1689 0.2294 -0.9586
vn -0.2404 0.2381 -0.9410
vn -0.7443 0.2944 -0.5994
vn 0.5188 0.1515 -0.8414
vn 0.4284 0.1108 -0.8968
vn 0.3799 0.1339 -0.9153
vn 0.8493 -0.0049 -0.5279
vn 0.8240 -0.0247 -0.5661
vn 0.7979 -0.0528 -0.6005
vn 0.8241 -0.0247 -0.5660
vn 0.8494 -0.0049 -0.5278
vn 0.9918 -0.0825 -0.0973
vn 0.9388 -0.1058 0.3277
vn 0.7144 0.0468 0.6982
vn 0.7083 -0.0697 0.7024
vn 0.7083 -0.0697 0.7025
vn 0.7143 0.0468 0.6982
vn 0.2397 0.1234 0.9630
vn 0.2576 0.0361 0.9656
vn 0.7540 0.3512 0.5551
vn -0.3724 0.4604 0.8058
vn 0.7215 0.6477 0.2449
vn 0.7214 0.6477 0.2449
vn 0.7170 0.5931 -0.3662
vn 0.8789 0.0810 -0.4700
vn 0.6527 0.3431 -0.6755
vn 0.7170 0.5931 -0.3663
vn -0.2949 0.3059 -0.9052
vn -0.5716 0.1187 -0.8119
vn -0.5717 0.1187 -0.8118
vn -0.5683 0.6850 -0.4558
vn -0.9391 0.2043 -0.2764
vn -0.5683 0.6851 -0.4558
vt 0.142675 0.878524
vt 0.142397 0.878464
vt 0.142597 0.877813
vt 0.142869 0.878303
vt 0.141970 0.878122
vt 0.141613 0.878554
vt 0.141305 0.878355
vt 0.141579 0.877774
vt 0.142061 0.878635
vt 0.141805 0.878746
vt 0.098152 0.972864
vt 0.098013 0.973182
vt 0.097469 0.972592
vt 0.097918 0.972321
vt 0.141898 0.937779
vt 0.141957 0.938360
vt 0.141559 0.938428
vt 0.141621 0.937843
vt 0.098425 0.972768
vt 0.098425 0.973380
vt 0.098377 0.973812
vt 0.097918 0.973588
vt 0.141644 0.937241
vt 0.141009 0.937333
vt 0.140886 0.936769
vt 0.141341 0.936872
vt 0.141031 0.937907
vt 0.097354 0.973325
vt 0.096794 0.973319
vt 0.096774 0.972640
vt 0.096782 0.971982
vt 0.097308 0.971895
vt 0.097768 0.971805
vt 0.108361 0.953730
vt 0.108328 0.953280
vt 0.109603 0.953266
vt 0.110017 0.953510
vt 0.106641 0.952472
vt 0.106969 0.952437
vt 0.109390 0.955391
vt 0.108206 0.955753
vt 0.107255 0.954166
vt 0.110551 0.954017
vt 0.106739 0.974467
vt 0.106783 0.974123
vt 0.107263 0.974143
vt 0.107065 0.974569
vt 0.106432 0.974603
vt 0.106301 0.974149
vt 0.106753 0.974872
vt 0.050017 0.973665
vt 0.049688 0.973615
vt 0.049795 0.973193
vt 0.050165 0.973384
vt 0.050137 0.974001
vt 0.049669 0.974107
vt 0.050412 0.973676
vt 0.097093 0.970579
vt 0.097146 0.970900
vt 0.096745 0.970928
vt 0.096844 0.970513
vt 0.097350 0.970433
vt 0.097586 0.970805
vt 0.050287 0.972888
vt 0.050238 0.973109
vt 0.049932 0.972868
vt 0.050064 0.972630
vt 0.110936 0.954197
vt 0.110250 0.955634
vt 0.049689 0.972747
vt 0.049496 0.973061
vt 0.049284 0.972789
vt 0.049661 0.972506
vt 0.068279 0.952886
vt 0.068505 0.953871
vt 0.067419 0.953651
vt 0.067477 0.952423
vt 0.137178 0.943943
vt 0.137676 0.943692
vt 0.137909 0.945191
vt 0.137119 0.944987
vt 0.067659 0.951812
vt 0.068691 0.952684
vt 0.140925 0.883084
vt 0.141553 0.882773
vt 0.141470 0.883852
vt 0.140750 0.883905
vt 0.139892 0.924832
vt 0.139820 0.925761
vt 0.138901 0.925761
vt 0.139308 0.924457
vt 0.064400 0.953235
vt 0.065061 0.952637
vt 0.065038 0.953839
vt 0.064187 0.954196
vt 0.143102 0.924449
vt 0.143055 0.924299
vt 0.143323 0.924092
vt 0.143324 0.924411
vt 0.142918 0.924678
vt 0.142734 0.924543
vt 0.143197 0.924788
vt 0.142954 0.942040
vt 0.143116 0.942247
vt 0.142756 0.942204
vt 0.142705 0.941968
vt 0.110932 0.901250
vt 0.110805 0.901408
vt 0.110553 0.901251
vt 0.110838 0.901110
vt 0.111161 0.901238
vt 0.111079 0.901456
vt 0.111300 0.902151
vt 0.111118 0.902125
vt 0.111155 0.901886
vt 0.111457 0.901987
vt 0.094992 0.968912
vt 0.095167 0.968969
vt 0.094960 0.969319
vt 0.094715 0.969264
vt 0.143530 0.923989
vt 0.143603 0.924391
vt 0.142933 0.942703
vt 0.142591 0.942805
vt 0.142498 0.942332
vt 0.143326 0.942674
vt 0.142388 0.942008
vt 0.095401 0.969461
vt 0.095413 0.969702
vt 0.095109 0.969708
vt 0.095201 0.969388
vt 0.095385 0.969115
vt 0.095565 0.969320
vt 0.095669 0.969609
vt 0.095668 0.969243
vt 0.095858 0.969505
vt 0.095933 0.969856
vt 0.095740 0.969964
vt 0.095434 0.970037
vt 0.095082 0.970083
vt 0.095828 0.970408
vt 0.095478 0.970448
vt 0.095102 0.970487
vt 0.094742 0.970524
vt 0.094747 0.970103
vt 0.095522 0.970955
vt 0.095129 0.970982
vt 0.094756 0.971023
vt 0.094464 0.971065
vt 0.094463 0.970539
vt 0.095119 0.971749
vt 0.094738 0.971774
vt 0.143534 0.926138
vt 0.143565 0.926898
vt 0.143259 0.926934
vt 0.143241 0.926175
vt 0.142893 0.926952
vt 0.142861 0.926178
vt 0.143562 0.927613
vt 0.143279 0.927665
vt 0.142955 0.927692
vt 0.142628 0.927675
vt 0.142554 0.926934
vt 0.143297 0.928188
vt 0.142976 0.928214
vt 0.142663 0.928204
vt 0.108080 0.971414
vt 0.108346 0.971307
vt 0.108397 0.971830
vt 0.108128 0.971929
vt 0.142991 0.928656
vt 0.142702 0.928662
vt 0.108026 0.970973
vt 0.108284 0.970853
vt 0.108630 0.970737
vt 0.108691 0.971213
vt 0.107895 0.970618
vt 0.108163 0.970473
vt 0.108543 0.970306
vt 0.108979 0.970215
vt 0.109011 0.970663
vt 0.107971 0.970237
vt 0.108435 0.970000
vt 0.109006 0.969861
vt 0.109485 0.969858
vt 0.109345 0.970207
vt 0.105316 0.899302
vt 0.104890 0.899708
vt 0.104623 0.899524
vt 0.105135 0.899009
vt 0.105794 0.898735
vt 0.105788 0.899098
vt 0.106376 0.898800
vt 0.106187 0.899156
vt 0.104968 0.898707
vt 0.105738 0.898430
vt 0.106460 0.898483
vt 0.107087 0.898800
vt 0.106837 0.899114
vt 0.137588 0.937157
vt 0.136966 0.937282
vt 0.136849 0.936945
vt 0.137487 0.936876
vt 0.138289 0.936850
vt 0.138286 0.937161
vt 0.139104 0.936892
vt 0.139040 0.937184
vt 0.137415 0.936453
vt 0.138281 0.936410
vt 0.139084 0.936417
vt 0.064769 0.964700
vt 0.065386 0.964436
vt 0.065469 0.964856
vt 0.064841 0.965147
vt 0.138255 0.935800
vt 0.139061 0.935791
vt 0.139701 0.935820
vt 0.139707 0.936425
vt 0.065314 0.963859
vt 0.066216 0.963684
vt 0.066265 0.964231
vt 0.139057 0.935027
vt 0.139722 0.935060
vt 0.065260 0.963120
vt 0.066197 0.962960
vt 0.067257 0.962937
vt 0.067255 0.963638
vt 0.065214 0.961810
vt 0.066212 0.961714
vt 0.067288 0.961749
vt 0.068202 0.961858
vt 0.068160 0.963040
vt 0.066309 0.959679
vt 0.067397 0.959673
vt 0.068303 0.959794
vt 0.137121 0.950952
vt 0.137913 0.951042
vt 0.137856 0.953134
vt 0.137075 0.953037
vt 0.067399 0.957600
vt 0.068313 0.957667
vt 0.137119 0.948801
vt 0.137855 0.948895
vt 0.138727 0.948913
vt 0.138854 0.951048
vt 0.137044 0.946771
vt 0.137871 0.946979
vt 0.138681 0.947141
vt 0.139446 0.947222
vt 0.139574 0.948814
vt 0.138581 0.945305
vt 0.139137 0.945320
vt 0.139642 0.945296
vt 0.140103 0.947067
vt 0.138233 0.943540
vt 0.138673 0.943462
vt 0.139083 0.943376
vt 0.138365 0.942106
vt 0.138752 0.941968
vt 0.105687 0.950595
vt 0.106898 0.949238
vt 0.107028 0.949474
vt 0.105986 0.950734
vt 0.105970 0.952552
vt 0.105518 0.952569
vt 0.106473 0.954464
vt 0.106352 0.950930
vt 0.107184 0.949825
vt 0.107402 0.950204
vt 0.106716 0.951122
vt 0.107646 0.950602
vt 0.107119 0.951318
vt 0.107274 0.952346
vt 0.107549 0.952286
vt 0.108294 0.952794
vt 0.108273 0.953074
vt 0.107422 0.951482
vt 0.107835 0.950907
vt 0.140855 0.877413
vt 0.141013 0.876818
vt 0.141335 0.877036
vt 0.141198 0.877576
vt 0.141001 0.878253
vt 0.140671 0.878187
vt 0.045495 0.973766
vt 0.045551 0.973440
vt 0.046226 0.973531
vt 0.046211 0.973809
vt 0.046230 0.974119
vt 0.045393 0.974119
vt 0.046803 0.973570
vt 0.046841 0.973842
vt 0.046979 0.974071
vt 0.109066 0.952745
vt 0.109258 0.952971
vt 0.142928 0.936410
vt 0.142668 0.936314
vt 0.142687 0.935758
vt 0.142897 0.935782
vt 0.109621 0.952156
vt 0.109975 0.952210
vt 0.110435 0.952257
vt 0.109621 0.951309
vt 0.109974 0.951108
vt 0.110374 0.950909
vt 0.110746 0.950728
vt 0.110902 0.952268
vt 0.109393 0.950273
vt 0.109642 0.949896
vt 0.109873 0.949581
vt 0.110065 0.949359
vt 0.111056 0.950616
vt 0.108478 0.949480
vt 0.108512 0.949097
vt 0.108533 0.948864
vt 0.142946 0.885327
vt 0.142524 0.885341
vt 0.142535 0.883737
vt 0.142941 0.883716
vt 0.143016 0.886864
vt 0.142601 0.886822
vt 0.142076 0.883772
vt 0.142153 0.882604
vt 0.142610 0.882525
vt 0.143016 0.882484
vt 0.142038 0.885328
vt 0.141427 0.885260
vt 0.142138 0.886737
vt 0.141538 0.886555
vt 0.137949 0.942313
vt 0.137444 0.942705
vt 0.140671 0.885129
vt 0.066249 0.951578
vt 0.066212 0.952274
vt 0.066169 0.953623
vt 0.067394 0.955497
vt 0.066153 0.955537
vt 0.065054 0.955693
vt 0.066284 0.957677
vt 0.065259 0.957801
vt 0.140487 0.927627
vt 0.140022 0.929692
vt 0.139343 0.929484
vt 0.139704 0.927503
vt 0.064283 0.955912
vt 0.138528 0.929281
vt 0.138712 0.927477
vt 0.137615 0.929103
vt 0.137821 0.927504
vt 0.138175 0.925723
vt 0.137120 0.927481
vt 0.137623 0.925659
vt 0.138285 0.924110
vt 0.138729 0.924240
vt 0.136675 0.927238
vt 0.137187 0.925548
vt 0.137895 0.923989
vt 0.111283 0.952315
vt 0.136977 0.928976
vt 0.138247 0.931334
vt 0.137370 0.931272
vt 0.110910 0.955684
vt 0.111125 0.957884
vt 0.110440 0.957960
vt 0.111283 0.960133
vt 0.110647 0.960256
vt 0.109760 0.960347
vt 0.109550 0.957993
vt 0.108707 0.960453
vt 0.108436 0.958110
vt 0.107740 0.960542
vt 0.107486 0.958263
vt 0.107269 0.956010
vt 0.106748 0.958287
vt 0.106576 0.956125
vt 0.140216 0.948550
vt 0.107035 0.960519
vt 0.139741 0.950957
vt 0.139668 0.953198
vt 0.138790 0.953205
vt 0.139546 0.954425
vt 0.138671 0.954426
vt 0.137776 0.954345
vt 0.138598 0.955067
vt 0.137734 0.954989
vt 0.137044 0.954905
vt 0.137048 0.954233
vt 0.137701 0.955516
vt 0.137047 0.955409
vt 0.068145 0.963705
vt 0.068139 0.964204
vt 0.067278 0.964145
vt 0.068127 0.964591
vt 0.067313 0.964539
vt 0.066340 0.964645
vt 0.067295 0.964864
vt 0.066427 0.964967
vt 0.065604 0.965140
vt 0.107498 0.900265
vt 0.107122 0.901056
vt 0.106854 0.900895
vt 0.107142 0.900247
vt 0.107121 0.899588
vt 0.107501 0.899440
vt 0.065019 0.965420
vt 0.106754 0.900216
vt 0.106742 0.899732
vt 0.106539 0.899366
vt 0.143013 0.946774
vt 0.142594 0.946736
vt 0.142712 0.946467
vt 0.143042 0.946473
vt 0.143356 0.946472
vt 0.143421 0.946760
vt 0.143038 0.946032
vt 0.143343 0.946044
vt 0.143579 0.946080
vt 0.143616 0.946507
vt 0.109569 0.970250
vt 0.109728 0.969903
vt 0.143355 0.945558
vt 0.143622 0.945580
vt 0.109338 0.970647
vt 0.109391 0.971122
vt 0.109057 0.971148
vt 0.109474 0.971665
vt 0.109131 0.971688
vt 0.108750 0.971749
vt 0.109242 0.972445
vt 0.108841 0.972484
vt 0.108476 0.972556
vt 0.108916 0.973252
vt 0.108548 0.973314
vt 0.108268 0.973408
vt 0.108198 0.972645
vt 0.108614 0.973959
vt 0.108337 0.974010
vt 0.142488 0.926148
vt 0.142521 0.925544
vt 0.142910 0.925621
vt 0.142672 0.925063
vt 0.143030 0.925168
vt 0.143414 0.925236
vt 0.143288 0.925655
vt 0.143506 0.924847
vt 0.094455 0.970101
vt 0.094528 0.969708
vt 0.094805 0.969706
vt 0.142412 0.924923
vt 0.142232 0.925452
vt 0.108709 0.974510
vt 0.109043 0.974514
vt 0.109135 0.974942
vt 0.108842 0.974930
vt 0.108959 0.973921
vt 0.109364 0.973907
vt 0.109401 0.974498
vt 0.109319 0.973239
vt 0.109697 0.973252
vt 0.109728 0.973915
vt 0.109612 0.972432
vt 0.143693 0.944195
vt 0.143408 0.944178
vt 0.143411 0.943304
vt 0.143715 0.943348
vt 0.143646 0.945010
vt 0.143372 0.944994
vt 0.143032 0.944992
vt 0.143040 0.944193
vt 0.143029 0.945549
vt 0.142712 0.945555
vt 0.142699 0.945007
vt 0.142731 0.946038
vt 0.142473 0.946050
vt 0.142466 0.945575
vt 0.142430 0.946458
vt 0.095925 0.973923
vt 0.095526 0.973863
vt 0.095524 0.973466
vt 0.095878 0.973522
vt 0.106473 0.900159
vt 0.106456 0.899779
vt 0.106537 0.900674
vt 0.106291 0.900538
vt 0.106131 0.901058
vt 0.105993 0.900874
vt 0.106323 0.901369
vt 0.105693 0.901602
vt 0.105671 0.901247
vt 0.106470 0.901643
vt 0.105730 0.901947
vt 0.105009 0.901950
vt 0.105148 0.901597
vt 0.068024 0.964879
vt 0.068691 0.964748
vt 0.068530 0.965014
vt 0.137681 0.955904
vt 0.138493 0.955954
vt 0.138459 0.956171
vt 0.137734 0.956138
vt 0.137066 0.955794
vt 0.138542 0.955582
vt 0.139382 0.955598
vt 0.139302 0.955966
vt 0.139461 0.955101
vt 0.107306 0.962394
vt 0.107996 0.962505
vt 0.108022 0.963027
vt 0.107363 0.962880
vt 0.107206 0.961730
vt 0.107905 0.961792
vt 0.108852 0.961779
vt 0.108908 0.962535
vt 0.109824 0.962542
vt 0.109802 0.963131
vt 0.108905 0.963110
vt 0.109828 0.961769
vt 0.110676 0.961739
vt 0.110651 0.962511
vt 0.136745 0.935894
vt 0.137388 0.935845
vt 0.136782 0.936505
vt 0.110605 0.963100
vt 0.136716 0.935099
vt 0.137364 0.935064
vt 0.138224 0.935044
vt 0.136675 0.933582
vt 0.137335 0.933541
vt 0.138213 0.933554
vt 0.139058 0.933611
vt 0.139087 0.931468
vt 0.064534 0.959908
vt 0.065263 0.959785
vt 0.064521 0.962009
vt 0.064578 0.957895
vt 0.139744 0.933715
vt 0.110548 0.963513
vt 0.109774 0.963564
vt 0.110460 0.963811
vt 0.109734 0.963871
vt 0.108856 0.963814
vt 0.108868 0.963536
vt 0.108080 0.963681
vt 0.108017 0.963408
vt 0.139948 0.955997
vt 0.139769 0.956295
vt 0.139199 0.956230
vt 0.140029 0.955601
vt 0.104041 0.900905
vt 0.104041 0.900106
vt 0.104334 0.900152
vt 0.104347 0.900815
vt 0.104648 0.901337
vt 0.104403 0.901565
vt 0.104662 0.900695
vt 0.104874 0.901077
vt 0.105244 0.901257
vt 0.143427 0.929246
vt 0.143020 0.929269
vt 0.143015 0.929039
vt 0.143322 0.929014
vt 0.105251 0.901029
vt 0.105615 0.901025
vt 0.143603 0.928972
vt 0.143306 0.928630
vt 0.143577 0.928583
vt 0.094710 0.973832
vt 0.094736 0.973452
vt 0.095096 0.973434
vt 0.095078 0.973819
vt 0.094745 0.973007
vt 0.095112 0.972981
vt 0.095513 0.972999
vt 0.095109 0.972463
vt 0.095512 0.972467
vt 0.095866 0.972504
vt 0.095859 0.973048
vt 0.095532 0.971742
vt 0.095919 0.971755
vt 0.142436 0.945030
vt 0.142388 0.944275
vt 0.142678 0.944227
vt 0.096185 0.971794
vt 0.095894 0.970946
vt 0.096185 0.970946
vt 0.142651 0.943374
vt 0.143021 0.943315
vt 0.096109 0.970363
vt 0.094743 0.972488
vt 0.094467 0.973065
vt 0.094455 0.972544
vt 0.143564 0.928134
vt 0.142695 0.929047
vt 0.142597 0.929274
vt 0.107629 0.970441
vt 0.104665 0.900185
vt 0.104341 0.899324
vt 0.143635 0.942698
vt 0.143388 0.942235
vt 0.109680 0.974456
vt 0.109625 0.974828
vt 0.109417 0.974916
vt 0.110644 0.901615
vt 0.110963 0.901658
vt 0.110878 0.901899
vt 0.110579 0.901892
vt 0.111270 0.901680
vt 0.110892 0.902151
vt 0.109221 0.975237
vt 0.108961 0.975216
vt 0.111377 0.901458
vt 0.111541 0.901572
vt 0.111534 0.901766
vt 0.068436 0.955628
vt 0.108447 0.949886
vt 0.109187 0.950625
vt 0.108437 0.950356
vt 0.109004 0.950962
vt 0.108433 0.950705
vt 0.128519 0.973335
vt 0.127950 0.973238
vt 0.128012 0.972866
vt 0.128531 0.972913
vt 0.129052 0.972966
vt 0.129119 0.973332
vt 0.128033 0.972424
vt 0.128540 0.972441
vt 0.129055 0.972517
vt 0.128554 0.971906
vt 0.129119 0.972003
vt 0.141764 0.877170
vt 0.142269 0.877296
vt 0.128517 0.971296
vt 0.129040 0.971432
vt 0.142783 0.877583
vt 0.106340 0.969901
vt 0.106882 0.969858
vt 0.106999 0.970578
vt 0.106514 0.970544
vt 0.106065 0.970575
vt 0.105818 0.970081
vt 0.107081 0.971287
vt 0.106577 0.971235
vt 0.106124 0.971211
vt 0.106534 0.971836
vt 0.106039 0.971791
vt 0.105701 0.971745
vt 0.105809 0.971217
vt 0.105824 0.970786
vt 0.142703 0.878959
vt 0.142619 0.879490
vt 0.142267 0.879434
vt 0.142375 0.878976
vt 0.142027 0.879429
vt 0.142141 0.878984
vt 0.096615 0.974331
vt 0.096495 0.973889
vt 0.096878 0.973783
vt 0.096926 0.974200
vt 0.045554 0.972506
vt 0.045910 0.972629
vt 0.045797 0.972847
vt 0.045436 0.972657
vt 0.097362 0.973803
vt 0.097371 0.974147
vt 0.046360 0.972704
vt 0.046311 0.972960
vt 0.046274 0.973233
vt 0.045690 0.973083
vt 0.046802 0.972731
vt 0.046778 0.972981
vt 0.046799 0.973271
vt 0.142097 0.936345
vt 0.141810 0.936393
vt 0.141722 0.935931
vt 0.142037 0.935852
vt 0.142368 0.935796
vt 0.142393 0.936325
vt 0.141884 0.935304
vt 0.142260 0.935205
vt 0.142604 0.935094
vt 0.109370 0.951428
vt 0.109371 0.952098
vt 0.142155 0.934808
vt 0.142517 0.934661
vt 0.141724 0.934913
vt 0.141476 0.935404
vt 0.141242 0.934994
vt 0.141103 0.935656
vt 0.140769 0.935385
vt 0.128019 0.971927
vt 0.128002 0.971402
vt 0.140899 0.936167
vt 0.140527 0.936031
vt 0.107364 0.970028
vt 0.107457 0.970670
vt 0.140487 0.936721
vt 0.107557 0.971373
vt 0.140501 0.937350
vt 0.107629 0.972015
vt 0.107098 0.971907
vt 0.107592 0.972572
vt 0.107041 0.972495
vt 0.106443 0.972434
vt 0.106947 0.973081
vt 0.106364 0.973055
vt 0.105858 0.973054
vt 0.105908 0.972396
vt 0.142869 0.880141
vt 0.142787 0.880794
vt 0.142355 0.880809
vt 0.142485 0.880113
vt 0.105518 0.972360
vt 0.141817 0.880737
vt 0.142010 0.880051
vt 0.141420 0.880588
vt 0.141630 0.879905
vt 0.096282 0.973388
vt 0.096230 0.972667
vt 0.141776 0.881343
vt 0.141398 0.881205
vt 0.096304 0.972014
vt 0.141737 0.881882
vt 0.141358 0.881755
vt 0.096291 0.971451
vt 0.096735 0.971422
vt 0.096368 0.970914
vt 0.097226 0.971376
vt 0.097693 0.971299
vt 0.141858 0.939430
vt 0.141825 0.939944
vt 0.141428 0.939991
vt 0.141463 0.939447
vt 0.141492 0.938925
vt 0.141905 0.938909
vt 0.140917 0.939472
vt 0.140936 0.938959
vt 0.140979 0.938434
vt 0.140487 0.939008
vt 0.140502 0.938466
vt 0.140505 0.937909
vt 0.107486 0.973118
vt 0.107389 0.973650
vt 0.106862 0.973628
vt 0.106319 0.973626
vt 0.105901 0.974206
vt 0.105866 0.973652
vt 0.142707 0.881380
vt 0.142627 0.881919
vt 0.142233 0.881958
vt 0.142291 0.881404
vt 0.142515 0.882406
vt 0.142149 0.882484
vt 0.141677 0.882407
vt 0.106052 0.974729
vt 0.106404 0.975084
vt 0.049284 0.973917
vt 0.049366 0.973469
vt 0.107127 0.975004
vt 0.106755 0.975242
vt 0.140518 0.939511
vt 0.140886 0.939971
vt 0.107629 0.974177
vt 0.107446 0.974654
vt 0.141348 0.940410
vt 0.140918 0.940356
vt 0.141722 0.940381
vt 0.141371 0.882264
vt 0.141445 0.936096
vt 0.141287 0.936440
vt 0.098329 0.974273
vt 0.098316 0.974606
vt 0.097875 0.974247
vt 0.097881 0.973995
vt 0.141582 0.936537
vt 0.111478 0.901259
vt 0.096545 0.970459
s 1
usemtl Material_0
f 28/1/1 29/2/2 31/3/3
f 28/1/1 31/3/3 33/4/4
f 1/5/5 35/6/6 37/7/7
f 1/5/5 37/7/7 38/8/8
f 1/5/5 31/3/3 29/2/2
f 1/5/5 29/2/2 40/9/9
f 1/5/5 40/9/9 42/10/10
f 1/5/5 42/10/10 35/6/6
f 2/11/11 43/12/12 6/13/13
f 2/11/11 6/13/13 44/14/14
f 3/15/15 45/16/16 46/17/17
f 3/15/15 46/17/17 48/18/18
f 2/11/11 47/19/18 4/20/19
f 2/11/11 4/20/19 43/12/12
f 4/20/19 49/21/20 51/22/21
f 4/20/19 51/22/21 43/12/12
f 5/23/19 52/24/22 53/25/23
f 5/23/19 53/25/23 50/26/24
f 5/23/19 48/18/18 54/27/25
f 5/23/19 54/27/25 52/24/22
f 6/13/13 55/28/26 56/29/27
f 6/13/13 56/29/27 57/30/28
f 6/13/13 43/12/12 51/22/21
f 6/13/13 51/22/21 55/28/26
f 6/13/13 57/30/28 58/31/29
f 6/13/13 58/31/29 59/32/30
f 6/13/13 59/32/30 60/33/31
f 6/13/13 60/33/31 44/14/14
f 7/34/32 62/35/33 63/36/34
f 7/34/32 63/36/34 64/37/35
f 7/34/32 65/38/36 66/39/37
f 7/34/32 66/39/37 62/35/33
f 7/34/32 12/40/38 67/41/39
f 7/34/32 67/41/39 68/42/40
f 7/34/32 64/37/35 69/43/41
f 7/34/32 69/43/41 12/40/38
f 8/44/42 71/45/43 72/46/44
f 8/44/42 72/46/44 74/47/45
f 8/44/42 75/48/46 76/49/47
f 8/44/42 76/49/47 71/45/43
f 8/44/42 74/47/45 77/50/48
f 8/44/42 77/50/48 75/48/46
f 9/51/49 78/52/50 79/53/51
f 9/51/49 79/53/51 80/54/52
f 9/51/49 82/55/53 84/56/54
f 9/51/49 84/56/54 78/52/50
f 9/51/49 80/54/52 86/57/55
f 9/51/49 86/57/55 82/55/53
f 11/58/56 89/59/57 90/60/58
f 11/58/56 90/60/58 92/61/59
f 11/58/56 94/62/60 96/63/61
f 11/58/56 96/63/61 89/59/57
f 10/64/56 91/65/62 98/66/63
f 10/64/56 98/66/63 93/67/60
f 12/40/38 69/43/41 99/68/64
f 12/40/38 99/68/64 101/69/65
f 13/70/66 103/71/67 105/72/68
f 13/70/66 105/72/68 108/73/69
f 13/70/66 98/66/63 79/53/51
f 13/70/66 79/53/51 103/71/67
f 13/70/66 108/73/69 93/67/60
f 13/70/66 93/67/60 98/66/63
f 14/74/70 110/75/71 112/76/72
f 14/74/70 112/76/72 113/77/73
f 15/78/74 115/79/75 116/80/76
f 15/78/74 116/80/76 111/81/77
f 14/74/70 113/77/73 117/82/78
f 14/74/70 117/82/78 114/83/79
f 18/84/80 121/85/81 122/86/82
f 18/84/80 122/86/82 124/87/83
f 17/88/80 126/89/84 127/90/85
f 17/88/80 127/90/85 120/91/86
f 16/92/80 123/93/83 128/94/87
f 16/92/80 128/94/87 125/95/88
f 19/96/89 131/97/90 133/98/91
f 19/96/89 133/98/91 134/99/92
f 19/96/89 135/100/93 137/101/94
f 19/96/89 137/101/94 131/97/90
f 19/96/89 134/99/92 138/102/95
f 19/96/89 138/102/95 135/100/93
f 21/103/96 140/104/97 25/105/98
f 21/103/96 25/105/98 142/106/99
f 20/107/96 144/108/100 146/109/101
f 20/107/96 146/109/101 139/110/97
f 20/107/96 141/111/99 148/112/102
f 20/107/96 148/112/102 144/108/100
f 23/113/103 132/114/104 149/115/105
f 23/113/103 149/115/105 151/116/106
f 22/117/107 150/118/108 152/119/109
f 22/117/107 152/119/109 153/120/110
f 24/121/107 154/122/110 134/99/92
f 24/121/107 134/99/92 133/98/91
f 25/105/98 155/123/111 157/124/112
f 25/105/98 157/124/112 159/125/113
f 25/105/98 140/104/97 160/126/114
f 25/105/98 160/126/114 155/123/111
f 25/105/98 159/125/113 163/127/115
f 25/105/98 163/127/115 142/106/99
f 26/128/116 164/129/117 165/130/118
f 26/128/116 165/130/118 166/131/119
f 26/128/116 166/131/119 167/132/120
f 26/128/116 167/132/120 169/133/121
f 26/128/116 169/133/121 171/134/122
f 26/128/116 171/134/122 164/129/117
f 171/134/122 169/133/121 172/135/123
f 171/134/122 172/135/123 161/136/115
f 171/134/122 161/136/115 158/137/124
f 171/134/122 158/137/124 174/138/125
f 171/134/122 174/138/125 175/139/126
f 171/134/122 175/139/126 164/129/117
f 175/139/126 176/140/127 165/130/118
f 175/139/126 165/130/118 164/129/117
f 175/139/126 174/138/125 177/141/128
f 175/139/126 177/141/128 178/142/129
f 175/139/126 178/142/129 179/143/130
f 175/139/126 179/143/130 176/140/127
f 179/143/130 180/144/131 181/145/132
f 179/143/130 181/145/132 176/140/127
f 179/143/130 178/142/129 182/146/133
f 179/143/130 182/146/133 183/147/134
f 179/143/130 183/147/134 184/148/135
f 179/143/130 184/148/135 180/144/131
f 184/148/135 186/149/136 188/150/137
f 184/148/135 188/150/137 180/144/131
f 184/148/135 183/147/134 190/151/138
f 184/148/135 190/151/138 191/152/139
f 185/153/140 192/154/141 193/155/142
f 185/153/140 193/155/142 187/156/136
f 193/155/142 194/157/143 195/158/144
f 193/155/142 195/158/144 187/156/136
f 193/155/142 192/154/141 197/159/145
f 193/155/142 197/159/145 199/160/146
f 193/155/142 199/160/146 200/161/147
f 193/155/142 200/161/147 194/157/143
f 200/161/147 202/162/148 204/163/149
f 200/161/147 204/163/149 194/157/143
f 200/161/147 199/160/146 206/164/150
f 200/161/147 206/164/150 207/165/151
f 200/161/147 207/165/151 209/166/152
f 200/161/147 209/166/152 202/162/148
f 208/167/152 210/168/153 211/169/154
f 208/167/152 211/169/154 201/170/148
f 209/166/152 207/165/151 212/171/155
f 209/166/152 212/171/155 214/172/156
f 208/167/152 213/173/156 215/174/157
f 208/167/152 215/174/157 210/168/153
f 215/174/157 216/175/158 217/176/159
f 215/174/157 217/176/159 210/168/153
f 215/174/157 213/173/156 218/177/160
f 215/174/157 218/177/160 220/178/161
f 215/174/157 220/178/161 221/179/162
f 215/174/157 221/179/162 216/175/158
f 221/179/162 222/180/163 223/181/164
f 221/179/162 223/181/164 216/175/158
f 221/179/162 220/178/161 225/182/165
f 221/179/162 225/182/165 227/183/166
f 221/179/162 227/183/166 229/184/167
f 221/179/162 229/184/167 222/180/163
f 229/184/167 231/185/168 232/186/169
f 229/184/167 232/186/169 222/180/163
f 228/187/167 226/188/166 234/189/170
f 228/187/167 234/189/170 235/190/171
f 228/187/167 235/190/171 236/191/172
f 228/187/167 236/191/172 230/192/168
f 236/191/172 237/193/173 238/194/174
f 236/191/172 238/194/174 230/192/168
f 236/191/172 235/190/171 241/195/175
f 236/191/172 241/195/175 243/196/176
f 236/191/172 243/196/176 246/197/177
f 236/191/172 246/197/177 237/193/173
f 246/197/177 248/198/178 250/199/179
f 246/197/177 250/199/179 237/193/173
f 247/200/177 245/201/180 252/202/181
f 247/200/177 252/202/181 253/203/182
f 247/200/177 253/203/182 254/204/183
f 247/200/177 254/204/183 249/205/178
f 254/204/183 256/206/184 259/207/185
f 254/204/183 259/207/185 249/205/178
f 254/204/183 253/203/182 260/208/186
f 254/204/183 260/208/186 261/209/187
f 254/204/183 261/209/187 263/210/188
f 254/204/183 263/210/188 256/206/184
f 262/211/189 264/212/190 266/213/191
f 262/211/189 266/213/191 255/214/192
f 263/210/188 261/209/187 267/215/193
f 263/210/188 267/215/193 268/216/194
f 263/210/188 268/216/194 270/217/195
f 263/210/188 270/217/195 265/218/190
f 269/219/196 271/220/197 272/221/198
f 269/219/196 272/221/198 264/212/190
f 270/217/195 268/216/194 273/222/199
f 270/217/195 273/222/199 275/223/200
f 269/219/196 274/224/200 276/225/201
f 269/219/196 276/225/201 271/220/197
f 276/225/201 277/226/202 278/227/203
f 276/225/201 278/227/203 271/220/197
f 276/225/201 274/224/200 279/228/204
f 276/225/201 279/228/204 281/229/205
f 276/225/201 281/229/205 282/230/206
f 276/225/201 282/230/206 277/226/202
f 282/230/206 283/231/207 285/232/208
f 282/230/206 285/232/208 277/226/202
f 282/230/206 281/229/205 287/233/209
f 282/230/206 287/233/209 288/234/210
f 282/230/206 288/234/210 289/235/211
f 282/230/206 289/235/211 283/231/207
f 290/236/211 291/237/212 292/238/213
f 290/236/211 292/238/213 284/239/214
f 289/235/211 288/234/210 293/240/215
f 289/235/211 293/240/215 294/241/216
f 290/236/211 295/242/217 296/243/218
f 290/236/211 296/243/218 291/237/212
f 296/243/218 297/244/219 298/245/220
f 296/243/218 298/245/220 291/237/212
f 296/243/218 295/242/217 300/246/221
f 296/243/218 300/246/221 301/247/222
f 296/243/218 301/247/222 302/248/223
f 296/243/218 302/248/223 297/244/219
f 302/248/223 303/249/224 305/250/225
f 302/248/223 305/250/225 297/244/219
f 302/248/223 301/247/222 116/80/76
f 302/248/223 116/80/76 306/251/226
f 302/248/223 306/251/226 307/252/227
f 302/248/223 307/252/227 303/249/224
f 307/252/227 309/253/228 311/254/229
f 307/252/227 311/254/229 303/249/224
f 307/252/227 306/251/226 312/255/230
f 307/252/227 312/255/230 313/256/231
f 307/252/227 313/256/231 315/257/232
f 307/252/227 315/257/232 309/253/228
f 315/257/232 313/256/231 316/258/233
f 315/257/232 316/258/233 319/259/234
f 314/260/235 318/261/234 321/262/236
f 314/260/235 321/262/236 322/263/237
f 314/260/235 322/263/237 323/264/238
f 314/260/235 323/264/238 308/265/228
f 323/264/238 65/38/36 7/34/32
f 323/264/238 7/34/32 68/42/40
f 323/264/238 68/42/40 310/266/239
f 323/264/238 310/266/239 308/265/228
f 323/264/238 322/263/237 324/267/240
f 323/264/238 324/267/240 65/38/36
f 324/267/240 322/263/237 321/262/236
f 324/267/240 321/262/236 325/268/241
f 324/267/240 325/268/241 326/269/242
f 324/267/240 326/269/242 327/270/243
f 324/267/240 327/270/243 66/39/37
f 324/267/240 66/39/37 65/38/36
f 327/270/243 326/269/242 328/271/244
f 327/270/243 328/271/244 329/272/245
f 327/270/243 329/272/245 330/273/246
f 327/270/243 330/273/246 66/39/37
f 330/273/246 332/274/247 335/275/248
f 330/273/246 335/275/248 336/276/249
f 330/273/246 336/276/249 62/35/33
f 330/273/246 62/35/33 66/39/37
f 330/273/246 329/272/245 337/277/250
f 330/273/246 337/277/250 332/274/247
f 337/277/250 329/272/245 328/271/244
f 337/277/250 328/271/244 339/278/251
f 338/279/250 341/280/252 343/281/253
f 338/279/250 343/281/253 344/282/254
f 338/279/250 344/282/254 346/283/255
f 338/279/250 346/283/255 333/284/247
f 345/285/255 36/286/7 347/287/256
f 345/285/255 347/287/256 348/288/257
f 345/285/255 348/288/257 334/289/248
f 345/285/255 334/289/248 331/290/247
f 346/283/255 344/282/254 38/8/8
f 346/283/255 38/8/8 37/7/7
f 348/288/257 347/287/256 349/291/258
f 348/288/257 349/291/258 351/292/259
f 348/288/257 351/292/259 353/293/260
f 348/288/257 353/293/260 334/289/248
f 354/294/260 356/295/261 336/276/249
f 354/294/260 336/276/249 335/275/248
f 355/296/260 352/297/262 358/298/263
f 355/296/260 358/298/263 360/299/264
f 354/294/260 359/300/264 361/301/265
f 354/294/260 361/301/265 356/295/261
f 361/301/265 362/302/266 63/36/34
f 361/301/265 63/36/34 356/295/261
f 361/301/265 359/300/264 363/303/267
f 361/301/265 363/303/267 364/304/268
f 361/301/265 364/304/268 365/305/269
f 361/301/265 365/305/269 362/302/266
f 365/305/269 366/306/270 367/307/271
f 365/305/269 367/307/271 362/302/266
f 365/305/269 364/304/268 368/308/272
f 365/305/269 368/308/272 369/309/273
f 365/305/269 369/309/273 370/310/274
f 365/305/269 370/310/274 366/306/270
f 370/310/274 371/311/275 373/312/276
f 370/310/274 373/312/276 366/306/270
f 370/310/274 369/309/273 376/313/277
f 370/310/274 376/313/277 377/314/278
f 370/310/274 377/314/278 378/315/279
f 370/310/274 378/315/279 371/311/275
f 379/316/279 380/317/280 381/318/281
f 379/316/279 381/318/281 372/319/275
f 378/315/279 377/314/278 321/262/236
f 378/315/279 321/262/236 318/261/234
f 379/316/279 320/320/234 317/321/282
f 379/316/279 317/321/282 380/317/280
f 381/318/281 382/322/283 384/323/284
f 381/318/281 384/323/284 386/324/285
f 381/318/281 386/324/285 375/325/276
f 381/318/281 375/325/276 372/319/275
f 381/318/281 380/317/280 387/326/286
f 381/318/281 387/326/286 382/322/283
f 387/326/286 389/327/287 122/86/82
f 387/326/286 122/86/82 382/322/283
f 387/326/286 380/317/280 317/321/282
f 387/326/286 317/321/282 391/328/288
f 387/326/286 391/328/288 119/329/78
f 387/326/286 119/329/78 389/327/287
f 390/330/289 316/258/233 313/256/231
f 390/330/289 313/256/231 312/255/230
f 390/330/289 312/255/230 115/79/75
f 390/330/289 115/79/75 118/331/78
f 389/327/287 393/332/290 124/87/83
f 389/327/287 124/87/83 122/86/82
f 388/333/287 117/82/78 113/77/73
f 388/333/287 113/77/73 392/334/290
f 392/334/290 394/335/291 128/94/87
f 392/334/290 128/94/87 123/93/83
f 392/334/290 113/77/73 112/76/72
f 392/334/290 112/76/72 394/335/291
f 394/335/291 112/76/72 395/336/292
f 394/335/291 395/336/292 396/337/293
f 394/335/291 396/337/293 397/338/294
f 394/335/291 397/338/294 128/94/87
f 397/338/294 396/337/293 399/339/295
f 397/338/294 399/339/295 400/340/296
f 398/341/297 401/342/296 403/343/298
f 398/341/297 403/343/298 405/344/299
f 397/338/294 404/345/299 125/95/88
f 397/338/294 125/95/88 128/94/87
f 405/344/299 403/343/298 406/346/300
f 405/344/299 406/346/300 407/347/301
f 405/344/299 407/347/301 127/90/85
f 405/344/299 127/90/85 126/89/84
f 407/347/301 406/346/300 409/348/302
f 407/347/301 409/348/302 410/349/303
f 407/347/301 410/349/303 411/350/304
f 407/347/301 411/350/304 127/90/85
f 411/350/304 410/349/303 100/351/64
f 411/350/304 100/351/64 412/352/305
f 411/350/304 412/352/305 385/353/285
f 411/350/304 385/353/285 383/354/284
f 411/350/304 383/354/284 120/91/86
f 411/350/304 120/91/86 127/90/85
f 412/352/305 100/351/64 70/355/41
f 412/352/305 70/355/41 414/356/306
f 412/352/305 414/356/306 374/357/276
f 412/352/305 374/357/276 385/353/285
f 413/358/307 69/43/41 64/37/35
f 413/358/307 64/37/35 367/307/271
f 413/358/307 367/307/271 366/306/270
f 413/358/307 366/306/270 373/312/276
f 410/349/303 409/348/302 102/359/308
f 410/349/303 102/359/308 100/351/64
f 409/348/302 406/346/300 415/360/309
f 409/348/302 415/360/309 417/361/310
f 408/362/311 416/363/312 418/364/313
f 408/362/311 418/364/313 101/69/65
f 418/364/313 416/363/312 419/365/314
f 418/364/313 419/365/314 421/366/315
f 418/364/313 421/366/315 423/367/316
f 418/364/313 423/367/316 424/368/317
f 418/364/313 424/368/317 12/40/38
f 418/364/313 12/40/38 101/69/65
f 424/368/317 423/367/316 425/369/318
f 424/368/317 425/369/318 426/370/319
f 424/368/317 426/370/319 67/41/39
f 424/368/317 67/41/39 12/40/38
f 426/370/319 425/369/318 427/371/320
f 426/370/319 427/371/320 428/372/321
f 426/370/319 428/372/321 429/373/322
f 426/370/319 429/373/322 67/41/39
f 429/373/322 428/372/321 431/374/323
f 429/373/322 431/374/323 304/375/225
f 430/376/322 305/250/225 303/249/224
f 430/376/322 303/249/224 311/254/229
f 429/373/322 310/266/239 68/42/40
f 429/373/322 68/42/40 67/41/39
f 431/374/323 428/372/321 427/371/320
f 431/374/323 427/371/320 433/377/324
f 432/378/323 434/379/325 435/380/326
f 432/378/323 435/380/326 298/245/220
f 432/378/323 298/245/220 297/244/219
f 432/378/323 297/244/219 305/250/225
f 435/380/326 434/379/325 437/381/327
f 435/380/326 437/381/327 438/382/328
f 435/380/326 438/382/328 439/383/329
f 435/380/326 439/383/329 292/238/213
f 435/380/326 292/238/213 291/237/212
f 435/380/326 291/237/212 298/245/220
f 439/383/329 438/382/328 440/384/330
f 439/383/329 440/384/330 441/385/331
f 439/383/329 441/385/331 443/386/332
f 439/383/329 443/386/332 286/387/333
f 439/383/329 286/387/333 284/239/214
f 439/383/329 284/239/214 292/238/213
f 443/386/332 441/385/331 444/388/334
f 443/386/332 444/388/334 446/389/335
f 442/390/336 445/391/335 447/392/337
f 442/390/336 447/392/337 278/227/203
f 442/390/336 278/227/203 277/226/202
f 442/390/336 277/226/202 285/232/208
f 447/392/337 445/391/335 448/393/338
f 447/392/337 448/393/338 450/394/339
f 447/392/337 450/394/339 451/395/340
f 447/392/337 451/395/340 272/221/198
f 447/392/337 272/221/198 271/220/197
f 447/392/337 271/220/197 278/227/203
f 451/395/340 450/394/339 452/396/341
f 451/395/340 452/396/341 454/397/342
f 451/395/340 454/397/342 456/398/343
f 451/395/340 456/398/343 266/213/191
f 451/395/340 266/213/191 264/212/190
f 451/395/340 264/212/190 272/221/198
f 457/399/343 455/400/342 458/401/344
f 457/399/343 458/401/344 459/402/345
f 457/399/343 459/402/345 460/403/346
f 457/399/343 460/403/346 258/404/185
f 456/398/343 257/405/185 255/214/192
f 456/398/343 255/214/192 266/213/191
f 460/403/346 459/402/345 461/406/347
f 460/403/346 461/406/347 462/407/348
f 460/403/346 462/407/348 464/408/349
f 460/403/346 464/408/349 250/199/179
f 460/403/346 250/199/179 248/198/178
f 460/403/346 248/198/178 258/404/185
f 465/409/349 463/410/348 467/411/350
f 465/409/349 467/411/350 468/412/351
f 465/409/349 468/412/351 470/413/352
f 465/409/349 470/413/352 240/414/174
f 464/408/349 238/194/174 237/193/173
f 464/408/349 237/193/173 250/199/179
f 470/413/352 468/412/351 471/415/353
f 470/413/352 471/415/353 472/416/354
f 470/413/352 472/416/354 474/417/355
f 470/413/352 474/417/355 233/418/169
f 469/419/352 232/186/169 231/185/168
f 469/419/352 231/185/168 239/420/174
f 474/417/355 472/416/354 475/421/356
f 474/417/355 475/421/356 477/422/357
f 473/423/358 476/424/359 478/425/360
f 473/423/358 478/425/360 223/181/164
f 473/423/358 223/181/164 222/180/163
f 473/423/358 222/180/163 232/186/169
f 478/425/360 476/424/359 479/426/361
f 478/425/360 479/426/361 481/427/362
f 478/425/360 481/427/362 482/428/363
f 478/425/360 482/428/363 217/176/159
f 478/425/360 217/176/159 216/175/158
f 478/425/360 216/175/158 223/181/164
f 482/428/363 481/427/362 483/429/364
f 482/428/363 483/429/364 484/430/365
f 482/428/363 484/430/365 485/431/366
f 482/428/363 485/431/366 211/169/154
f 482/428/363 211/169/154 210/168/153
f 482/428/363 210/168/153 217/176/159
f 485/431/366 484/430/365 486/432/367
f 485/431/366 486/432/367 487/433/368
f 485/431/366 487/433/368 488/434/369
f 485/431/366 488/434/369 203/435/149
f 485/431/366 203/435/149 201/170/148
f 485/431/366 201/170/148 211/169/154
f 488/434/369 487/433/368 490/436/370
f 488/434/369 490/436/370 492/437/371
f 489/438/369 493/439/371 494/440/372
f 489/438/369 494/440/372 195/158/144
f 489/438/369 195/158/144 194/157/143
f 489/438/369 194/157/143 204/163/149
f 494/440/372 493/439/371 495/441/373
f 494/440/372 495/441/373 496/442/374
f 494/440/372 496/442/374 498/443/375
f 494/440/372 498/443/375 189/444/376
f 494/440/372 189/444/376 187/156/136
f 494/440/372 187/156/136 195/158/144
f 498/443/375 496/442/374 138/102/95
f 498/443/375 138/102/95 500/445/377
f 497/446/375 499/447/377 501/448/378
f 497/446/375 501/448/378 181/145/132
f 497/446/375 181/145/132 180/144/131
f 497/446/375 180/144/131 188/150/137
f 501/448/378 499/447/377 153/120/110
f 501/448/378 153/120/110 152/119/109
f 501/448/378 152/119/109 166/131/119
f 501/448/378 166/131/119 165/130/118
f 501/448/378 165/130/118 176/140/127
f 501/448/378 176/140/127 181/145/132
f 500/445/377 138/102/95 134/99/92
f 500/445/377 134/99/92 154/122/110
f 496/442/374 495/441/373 135/100/93
f 496/442/374 135/100/93 138/102/95
f 495/441/373 503/449/379 137/101/94
f 495/441/373 137/101/94 135/100/93
f 495/441/373 493/439/371 491/450/370
f 495/441/373 491/450/370 503/449/379
f 502/451/379 504/452/380 505/453/381
f 502/451/379 505/453/381 136/454/382
f 502/451/379 490/436/370 507/455/383
f 502/451/379 507/455/383 504/452/380
f 507/455/383 508/456/384 509/457/385
f 507/455/383 509/457/385 504/452/380
f 507/455/383 490/436/370 487/433/368
f 507/455/383 487/433/368 486/432/367
f 507/455/383 486/432/367 510/458/386
f 507/455/383 510/458/386 508/456/384
f 510/458/386 511/459/387 513/460/388
f 510/458/386 513/460/388 508/456/384
f 510/458/386 486/432/367 484/430/365
f 510/458/386 484/430/365 483/429/364
f 510/458/386 483/429/364 515/461/389
f 510/458/386 515/461/389 511/459/387
f 516/462/389 517/463/390 518/464/391
f 516/462/389 518/464/391 512/465/387
f 515/461/389 483/429/364 481/427/362
f 515/461/389 481/427/362 479/426/361
f 516/462/389 480/466/392 519/467/393
f 516/462/389 519/467/393 517/463/390
f 519/467/393 520/468/394 521/469/395
f 519/467/393 521/469/395 517/463/390
f 519/467/393 480/466/392 477/422/357
f 519/467/393 477/422/357 475/421/356
f 519/467/393 475/421/356 522/470/396
f 519/467/393 522/470/396 520/468/394
f 522/470/396 523/471/397 524/472/398
f 522/470/396 524/472/398 520/468/394
f 522/470/396 475/421/356 472/416/354
f 522/470/396 472/416/354 471/415/353
f 522/470/396 471/415/353 525/473/399
f 522/470/396 525/473/399 523/471/397
f 525/473/399 527/474/400 529/475/401
f 525/473/399 529/475/401 523/471/397
f 525/473/399 471/415/353 468/412/351
f 525/473/399 468/412/351 467/411/350
f 525/473/399 467/411/350 532/476/402
f 525/473/399 532/476/402 527/474/400
f 530/477/402 533/478/403 535/479/404
f 530/477/402 535/479/404 526/480/400
f 531/481/402 466/482/405 462/407/348
f 531/481/402 462/407/348 461/406/347
f 531/481/402 461/406/347 536/483/406
f 531/481/402 536/483/406 534/484/403
f 536/483/406 537/485/407 539/486/408
f 536/483/406 539/486/408 534/484/403
f 536/483/406 461/406/347 459/402/345
f 536/483/406 459/402/345 458/401/344
f 536/483/406 458/401/344 540/487/409
f 536/483/406 540/487/409 537/485/407
f 540/487/409 541/488/410 542/489/411
f 540/487/409 542/489/411 537/485/407
f 540/487/409 458/401/344 455/400/342
f 540/487/409 455/400/342 453/490/341
f 540/487/409 453/490/341 544/491/412
f 540/487/409 544/491/412 541/488/410
f 544/491/412 546/492/413 548/493/414
f 544/491/412 548/493/414 541/488/410
f 543/494/412 452/396/341 450/394/339
f 543/494/412 450/394/339 448/393/338
f 543/494/412 448/393/338 549/495/415
f 543/494/412 549/495/415 545/496/416
f 550/497/415 551/498/417 553/499/418
f 550/497/415 553/499/418 547/500/416
f 550/497/415 449/501/338 446/389/335
f 550/497/415 446/389/335 444/388/334
f 550/497/415 444/388/334 554/502/419
f 550/497/415 554/502/419 551/498/417
f 554/502/419 556/503/420 557/504/421
f 554/502/419 557/504/421 551/498/417
f 554/502/419 444/388/334 441/385/331
f 554/502/419 441/385/331 440/384/330
f 554/502/419 440/384/330 559/505/422
f 554/502/419 559/505/422 556/503/420
f 558/506/422 560/507/423 561/508/424
f 558/506/422 561/508/424 555/509/420
f 559/505/422 440/384/330 438/382/328
f 559/505/422 438/382/328 437/381/327
f 558/506/422 436/510/425 563/511/426
f 558/506/422 563/511/426 560/507/423
f 563/511/426 564/512/427 565/513/428
f 563/511/426 565/513/428 560/507/423
f 563/511/426 436/510/425 433/377/324
f 563/511/426 433/377/324 427/371/320
f 563/511/426 427/371/320 425/369/318
f 563/511/426 425/369/318 564/512/427
f 565/513/428 566/514/429 567/515/430
f 565/513/428 567/515/430 568/516/431
f 565/513/428 568/516/431 561/508/424
f 565/513/428 561/508/424 560/507/423
f 565/513/428 564/512/427 569/517/432
f 565/513/428 569/517/432 566/514/429
f 569/517/432 570/518/433 572/519/434
f 569/517/432 572/519/434 566/514/429
f 569/517/432 564/512/427 425/369/318
f 569/517/432 425/369/318 423/367/316
f 569/517/432 423/367/316 421/366/315
f 569/517/432 421/366/315 570/518/433
f 573/520/434 574/521/435 260/208/186
f 573/520/434 260/208/186 576/522/436
f 572/519/434 575/523/436 567/515/430
f 572/519/434 567/515/430 566/514/429
f 573/520/434 571/524/433 577/525/437
f 573/520/434 577/525/437 574/521/435
f 577/525/437 578/526/438 267/215/193
f 577/525/437 267/215/193 574/521/435
f 577/525/437 571/524/433 422/527/439
f 577/525/437 422/527/439 420/528/440
f 577/525/437 420/528/440 579/529/441
f 577/525/437 579/529/441 578/526/438
f 579/529/441 581/530/442 273/222/199
f 579/529/441 273/222/199 578/526/438
f 579/529/441 420/528/440 417/361/310
f 579/529/441 417/361/310 415/360/309
f 579/529/441 415/360/309 583/531/443
f 579/529/441 583/531/443 581/530/442
f 582/532/443 584/533/444 279/228/204
f 582/532/443 279/228/204 580/534/442
f 583/531/443 415/360/309 406/346/300
f 583/531/443 406/346/300 403/343/298
f 582/532/443 402/535/298 400/340/296
f 582/532/443 400/340/296 584/533/444
f 584/533/444 287/233/209 281/229/205
f 584/533/444 281/229/205 279/228/204
f 584/533/444 400/340/296 399/339/295
f 584/533/444 399/339/295 287/233/209
f 581/530/442 280/536/445 275/223/200
f 581/530/442 275/223/200 273/222/199
f 578/526/438 273/222/199 268/216/194
f 578/526/438 268/216/194 267/215/193
f 576/522/436 260/208/186 253/203/182
f 576/522/436 253/203/182 252/202/181
f 575/523/436 251/537/181 585/538/446
f 575/523/436 585/538/446 567/515/430
f 585/538/446 251/537/181 244/539/447
f 585/538/446 244/539/447 242/540/175
f 585/538/446 242/540/175 587/541/448
f 585/538/446 587/541/448 588/542/449
f 585/538/446 588/542/449 568/516/431
f 585/538/446 568/516/431 567/515/430
f 588/542/449 587/541/448 590/543/450
f 588/542/449 590/543/450 592/544/451
f 588/542/449 592/544/451 561/508/424
f 588/542/449 561/508/424 568/516/431
f 593/545/452 591/546/453 595/547/454
f 593/545/452 595/547/454 557/504/421
f 593/545/452 557/504/421 556/503/420
f 593/545/452 556/503/420 562/548/455
f 594/549/454 589/550/450 596/551/456
f 594/549/454 596/551/456 597/552/457
f 594/549/454 597/552/457 598/553/458
f 594/549/454 598/553/458 552/554/459
f 595/547/454 553/499/418 551/498/417
f 595/547/454 551/498/417 557/504/421
f 598/553/458 597/552/457 599/555/460
f 598/553/458 599/555/460 602/556/461
f 598/553/458 602/556/461 604/557/462
f 598/553/458 604/557/462 548/493/414
f 598/553/458 548/493/414 546/492/413
f 598/553/458 546/492/413 552/554/459
f 605/558/462 603/559/463 606/560/464
f 605/558/462 606/560/464 608/561/465
f 604/557/462 607/562/466 610/563/467
f 604/557/462 610/563/467 542/489/411
f 604/557/462 542/489/411 541/488/410
f 604/557/462 541/488/410 548/493/414
f 611/564/467 608/561/465 612/565/468
f 611/564/467 612/565/468 614/566/469
f 609/567/467 613/568/469 615/569/470
f 609/567/467 615/569/470 538/570/408
f 610/563/467 539/486/408 537/485/407
f 610/563/467 537/485/407 542/489/411
f 615/569/470 613/568/469 616/571/471
f 615/569/470 616/571/471 618/572/472
f 615/569/470 618/572/472 619/573/473
f 615/569/470 619/573/473 535/479/404
f 615/569/470 535/479/404 533/478/403
f 615/569/470 533/478/403 538/570/408
f 619/573/473 618/572/472 620/574/474
f 619/573/473 620/574/474 621/575/475
f 619/573/473 621/575/475 622/576/476
f 619/573/473 622/576/476 528/577/477
f 619/573/473 528/577/477 526/480/400
f 619/573/473 526/480/400 535/479/404
f 622/576/476 621/575/475 624/578/478
f 622/576/476 624/578/478 625/579/479
f 623/580/480 626/581/479 628/582/481
f 623/580/480 628/582/481 524/472/398
f 623/580/480 524/472/398 523/471/397
f 623/580/480 523/471/397 529/475/401
f 627/583/482 625/579/479 629/584/483
f 627/583/482 629/584/483 630/585/484
f 628/582/481 631/586/485 632/587/486
f 628/582/481 632/587/486 521/469/395
f 628/582/481 521/469/395 520/468/394
f 628/582/481 520/468/394 524/472/398
f 632/587/486 631/586/485 157/124/112
f 632/587/486 157/124/112 155/123/111
f 632/587/486 155/123/111 160/126/114
f 632/587/486 160/126/114 518/464/391
f 632/587/486 518/464/391 517/463/390
f 632/587/486 517/463/390 521/469/395
f 630/585/484 629/584/483 177/141/128
f 630/585/484 177/141/128 156/588/487
f 629/584/483 182/146/133 178/142/129
f 629/584/483 178/142/129 177/141/128
f 629/584/483 625/579/479 624/578/478
f 629/584/483 624/578/478 182/146/133
f 624/578/478 190/151/138 183/147/134
f 624/578/478 183/147/134 182/146/133
f 624/578/478 621/575/475 620/574/474
f 624/578/478 620/574/474 190/151/138
f 620/574/474 196/589/145 191/152/139
f 620/574/474 191/152/139 190/151/138
f 620/574/474 618/572/472 616/571/471
f 620/574/474 616/571/471 196/589/145
f 616/571/471 205/590/150 198/591/488
f 616/571/471 198/591/488 196/589/145
f 617/592/471 614/566/469 612/565/468
f 617/592/471 612/565/468 206/164/150
f 612/565/468 212/171/155 207/165/151
f 612/565/468 207/165/151 206/164/150
f 612/565/468 608/561/465 606/560/464
f 612/565/468 606/560/464 212/171/155
f 606/560/464 219/593/160 214/172/156
f 606/560/464 214/172/156 212/171/155
f 606/560/464 603/559/463 601/594/489
f 606/560/464 601/594/489 219/593/160
f 600/595/489 225/182/165 220/178/161
f 600/595/489 220/178/161 218/177/160
f 599/555/460 597/552/457 596/551/456
f 599/555/460 596/551/456 224/596/165
f 596/551/456 234/189/170 226/188/166
f 596/551/456 226/188/166 224/596/165
f 596/551/456 589/550/450 586/597/448
f 596/551/456 586/597/448 234/189/170
f 586/597/448 241/195/175 235/190/171
f 586/597/448 235/190/171 234/189/170
f 574/521/435 267/215/193 261/209/187
f 574/521/435 261/209/187 260/208/186
f 518/464/391 160/126/114 514/598/388
f 518/464/391 514/598/388 512/465/387
f 514/598/388 160/126/114 140/104/97
f 514/598/388 140/104/97 147/599/101
f 513/460/388 145/600/101 509/457/385
f 513/460/388 509/457/385 508/456/384
f 509/457/385 145/600/101 143/601/100
f 509/457/385 143/601/100 633/602/490
f 509/457/385 633/602/490 505/453/381
f 509/457/385 505/453/381 504/452/380
f 634/603/490 144/108/100 148/112/102
f 634/603/490 148/112/102 635/604/491
f 634/603/490 635/604/491 637/605/492
f 634/603/490 637/605/492 506/606/381
f 637/605/492 635/604/491 638/607/493
f 637/605/492 638/607/493 149/115/105
f 637/605/492 149/115/105 132/114/104
f 637/605/492 132/114/104 130/608/90
f 636/609/494 129/610/90 136/454/382
f 636/609/494 136/454/382 505/453/381
f 638/607/493 173/611/495 170/612/496
f 638/607/493 170/612/496 168/613/120
f 638/607/493 168/613/120 151/116/106
f 638/607/493 151/116/106 149/115/105
f 638/607/493 635/604/491 148/112/102
f 638/607/493 148/112/102 173/611/495
f 399/339/295 293/240/215 288/234/210
f 399/339/295 288/234/210 287/233/209
f 399/339/295 396/337/293 395/336/292
f 399/339/295 395/336/292 293/240/215
f 395/336/292 299/614/497 294/241/216
f 395/336/292 294/241/216 293/240/215
f 395/336/292 112/76/72 110/75/71
f 395/336/292 110/75/71 299/614/497
f 384/323/284 382/322/283 122/86/82
f 384/323/284 122/86/82 121/85/81
f 377/314/278 376/313/277 325/268/241
f 377/314/278 325/268/241 321/262/236
f 376/313/277 369/309/273 368/308/272
f 376/313/277 368/308/272 639/615/498
f 376/313/277 639/615/498 326/269/242
f 376/313/277 326/269/242 325/268/241
f 639/615/498 368/308/272 640/616/499
f 639/615/498 640/616/499 641/617/500
f 639/615/498 641/617/500 328/271/244
f 639/615/498 328/271/244 326/269/242
f 641/617/500 640/616/499 642/618/501
f 641/617/500 642/618/501 645/619/502
f 641/617/500 645/619/502 339/278/251
f 641/617/500 339/278/251 328/271/244
f 646/620/502 643/621/503 647/622/504
f 646/620/502 647/622/504 649/623/505
f 646/620/502 649/623/505 342/624/506
f 646/620/502 342/624/506 340/625/251
f 649/623/505 647/622/504 650/626/507
f 649/623/505 650/626/507 652/627/508
f 649/623/505 652/627/508 653/628/509
f 649/623/505 653/628/509 342/624/506
f 653/628/509 652/627/508 655/629/510
f 653/628/509 655/629/510 656/630/511
f 654/631/509 657/632/512 1/5/5
f 654/631/509 1/5/5 38/8/8
f 654/631/509 38/8/8 344/282/254
f 654/631/509 344/282/254 343/281/253
f 656/630/511 655/629/510 659/633/513
f 656/630/511 659/633/513 661/634/514
f 657/632/512 662/635/514 31/3/3
f 657/632/512 31/3/3 1/5/5
f 660/636/514 658/637/513 663/638/515
f 660/636/514 663/638/515 664/639/516
f 660/636/514 664/639/516 32/640/4
f 660/636/514 32/640/4 30/641/3
f 664/639/516 663/638/515 665/642/517
f 664/639/516 665/642/517 666/643/518
f 664/639/516 666/643/518 667/644/519
f 664/639/516 667/644/519 32/640/4
f 667/644/519 666/643/518 668/645/520
f 667/644/519 668/645/520 669/646/521
f 667/644/519 669/646/521 670/647/522
f 667/644/519 670/647/522 672/648/523
f 667/644/519 672/648/523 27/649/524
f 667/644/519 27/649/524 32/640/4
f 673/650/523 671/651/522 674/652/525
f 673/650/523 674/652/525 675/653/526
f 673/650/523 675/653/526 29/2/2
f 673/650/523 29/2/2 28/1/1
f 675/653/526 674/652/525 677/654/527
f 675/653/526 677/654/527 680/655/528
f 675/653/526 680/655/528 40/9/9
f 675/653/526 40/9/9 29/2/2
f 679/656/528 676/657/529 681/658/530
f 679/656/528 681/658/530 683/659/531
f 678/660/528 682/661/531 41/662/532
f 678/660/528 41/662/532 39/663/9
f 683/659/531 681/658/530 684/664/533
f 683/659/531 684/664/533 686/665/534
f 682/661/531 685/666/534 687/667/535
f 682/661/531 687/667/535 41/662/532
f 687/667/535 688/668/536 34/669/6
f 687/667/535 34/669/6 41/662/532
f 687/667/535 685/666/534 689/670/537
f 687/667/535 689/670/537 692/671/538
f 687/667/535 692/671/538 694/672/539
f 687/667/535 694/672/539 688/668/536
f 694/672/539 349/291/258 347/287/256
f 694/672/539 347/287/256 688/668/536
f 695/673/539 693/674/540 696/675/541
f 695/673/539 696/675/541 697/676/542
f 695/673/539 697/676/542 698/677/543
f 695/673/539 698/677/543 350/678/258
f 698/677/543 358/298/263 352/297/262
f 698/677/543 352/297/262 350/678/258
f 698/677/543 697/676/542 699/679/544
f 698/677/543 699/679/544 700/680/545
f 698/677/543 700/680/545 702/681/546
f 698/677/543 702/681/546 358/298/263
f 701/682/546 363/303/267 359/300/264
f 701/682/546 359/300/264 357/683/547
f 702/681/546 700/680/545 648/684/548
f 702/681/546 648/684/548 644/685/503
f 701/682/546 642/618/501 640/616/499
f 701/682/546 640/616/499 363/303/267
f 700/680/545 699/679/544 651/686/549
f 700/680/545 651/686/549 648/684/548
f 699/679/544 697/676/542 696/675/541
f 699/679/544 696/675/541 703/687/550
f 699/679/544 703/687/550 705/688/551
f 699/679/544 705/688/551 651/686/549
f 705/688/551 703/687/550 706/689/552
f 705/688/551 706/689/552 709/690/553
f 704/691/554 708/692/553 659/633/513
f 704/691/554 659/633/513 655/629/510
f 704/691/554 655/629/510 652/627/508
f 704/691/554 652/627/508 650/626/507
f 709/690/553 706/689/552 710/693/555
f 709/690/553 710/693/555 712/694/556
f 707/695/553 711/696/557 663/638/515
f 707/695/553 663/638/515 658/637/513
f 712/694/556 710/693/555 53/25/23
f 712/694/556 53/25/23 714/697/558
f 711/696/557 713/698/558 665/642/517
f 711/696/557 665/642/517 663/638/515
f 714/697/558 53/25/23 52/24/22
f 714/697/558 52/24/22 716/699/559
f 713/698/558 715/700/559 717/701/560
f 713/698/558 717/701/560 665/642/517
f 717/701/560 715/700/559 718/702/561
f 717/701/560 718/702/561 720/703/562
f 717/701/560 720/703/562 721/704/563
f 717/701/560 721/704/563 668/645/520
f 717/701/560 668/645/520 666/643/518
f 717/701/560 666/643/518 665/642/517
f 721/704/563 720/703/562 722/705/564
f 721/704/563 722/705/564 723/706/565
f 721/704/563 723/706/565 724/707/566
f 721/704/563 724/707/566 726/708/567
f 721/704/563 726/708/567 669/646/521
f 721/704/563 669/646/521 668/645/520
f 727/709/567 725/710/568 728/711/569
f 727/709/567 728/711/569 730/712/570
f 726/708/567 729/713/570 670/647/522
f 726/708/567 670/647/522 669/646/521
f 730/712/570 728/711/569 731/714/571
f 730/712/570 731/714/571 732/715/572
f 730/712/570 732/715/572 674/652/525
f 730/712/570 674/652/525 671/651/522
f 732/715/572 731/714/571 734/716/573
f 732/715/572 734/716/573 736/717/574
f 732/715/572 736/717/574 677/654/527
f 732/715/572 677/654/527 674/652/525
f 735/718/575 733/719/573 57/30/28
f 735/718/575 57/30/28 56/29/27
f 735/718/575 56/29/27 681/658/530
f 735/718/575 681/658/530 676/657/529
f 734/716/573 731/714/571 737/720/576
f 734/716/573 737/720/576 739/721/577
f 733/719/573 738/722/578 58/31/29
f 733/719/573 58/31/29 57/30/28
f 739/721/577 737/720/576 740/723/579
f 739/721/577 740/723/579 742/724/580
f 738/722/578 741/725/581 743/726/582
f 738/722/578 743/726/582 58/31/29
f 743/726/582 741/725/581 87/727/55
f 743/726/582 87/727/55 90/60/58
f 743/726/582 90/60/58 89/59/57
f 743/726/582 89/59/57 744/728/583
f 743/726/582 744/728/583 59/32/30
f 743/726/582 59/32/30 58/31/29
f 744/728/583 89/59/57 96/63/61
f 744/728/583 96/63/61 745/729/584
f 744/728/583 745/729/584 60/33/31
f 744/728/583 60/33/31 59/32/30
f 746/730/585 97/731/586 747/732/587
f 746/730/585 747/732/587 748/733/588
f 746/730/585 748/733/588 749/734/589
f 746/730/585 749/734/589 61/735/590
f 749/734/589 46/17/17 45/16/16
f 749/734/589 45/16/16 61/735/590
f 749/734/589 748/733/588 751/736/591
f 749/734/589 751/736/591 752/737/592
f 749/734/589 752/737/592 753/738/593
f 749/734/589 753/738/593 46/17/17
f 753/738/593 54/27/25 48/18/18
f 753/738/593 48/18/18 46/17/17
f 753/738/593 752/737/592 755/739/594
f 753/738/593 755/739/594 757/740/595
f 753/738/593 757/740/595 719/741/596
f 753/738/593 719/741/596 54/27/25
f 756/742/597 754/743/598 758/744/599
f 756/742/597 758/744/599 722/705/564
f 756/742/597 722/705/564 720/703/562
f 756/742/597 720/703/562 718/702/561
f 758/744/599 754/743/598 72/46/44
f 758/744/599 72/46/44 71/45/43
f 758/744/599 71/45/43 76/49/47
f 758/744/599 76/49/47 759/745/600
f 758/744/599 759/745/600 723/706/565
f 758/744/599 723/706/565 722/705/564
f 759/745/600 76/49/47 760/746/601
f 759/745/600 760/746/601 762/747/602
f 759/745/600 762/747/602 724/707/566
f 759/745/600 724/707/566 723/706/565
f 763/748/603 761/749/604 764/750/605
f 763/748/603 764/750/605 765/751/606
f 763/748/603 765/751/606 728/711/569
f 763/748/603 728/711/569 725/710/568
f 765/751/606 764/750/605 740/723/579
f 765/751/606 740/723/579 737/720/576
f 765/751/606 737/720/576 731/714/571
f 765/751/606 731/714/571 728/711/569
f 764/750/605 761/749/604 768/752/607
f 764/750/605 768/752/607 85/753/54
f 764/750/605 85/753/54 83/754/608
f 764/750/605 83/754/608 740/723/579
f 767/755/607 760/746/601 76/49/47
f 767/755/607 76/49/47 75/48/46
f 767/755/607 75/48/46 77/50/48
f 767/755/607 77/50/48 770/756/609
f 766/757/607 769/758/610 78/52/50
f 766/757/607 78/52/50 84/56/54
f 770/756/609 77/50/48 106/759/611
f 770/756/609 106/759/611 104/760/67
f 769/758/610 103/71/67 79/53/51
f 769/758/610 79/53/51 78/52/50
f 755/739/594 752/737/592 751/736/591
f 755/739/594 751/736/591 73/761/612
f 751/736/591 748/733/588 747/732/587
f 751/736/591 747/732/587 772/762/613
f 750/763/591 771/764/613 74/47/45
f 750/763/591 74/47/45 72/46/44
f 772/762/613 747/732/587 109/765/69
f 772/762/613 109/765/69 107/766/614
f 771/764/613 106/759/611 77/50/48
f 771/764/613 77/50/48 74/47/45
f 747/732/587 97/731/586 95/767/60
f 747/732/587 95/767/60 109/765/69
f 742/724/580 740/723/579 83/754/608
f 742/724/580 83/754/608 88/768/55
f 719/741/596 716/699/559 52/24/22
f 719/741/596 52/24/22 54/27/25
f 710/693/555 706/689/552 774/769/615
f 710/693/555 774/769/615 776/770/616
f 710/693/555 776/770/616 50/26/24
f 710/693/555 50/26/24 53/25/23
f 775/771/617 773/772/615 690/773/618
f 775/771/617 690/773/618 777/774/619
f 775/771/617 777/774/619 51/22/21
f 775/771/617 51/22/21 49/21/20
f 777/774/619 690/773/618 686/665/534
f 777/774/619 686/665/534 684/664/533
f 777/774/619 684/664/533 55/28/26
f 777/774/619 55/28/26 51/22/21
f 774/769/615 696/675/541 693/674/540
f 774/769/615 693/674/540 691/775/620
f 774/769/615 706/689/552 703/687/550
f 774/769/615 703/687/550 696/675/541
f 688/668/536 347/287/256 36/286/7
f 688/668/536 36/286/7 34/669/6
f 684/664/533 681/658/530 56/29/27
f 684/664/533 56/29/27 55/28/26
f 640/616/499 368/308/272 364/304/268
f 640/616/499 364/304/268 363/303/267
f 367/307/271 64/37/35 63/36/34
f 367/307/271 63/36/34 362/302/266
f 356/295/261 63/36/34 62/35/33
f 356/295/261 62/35/33 336/276/249
f 312/255/230 306/251/226 116/80/76
f 312/255/230 116/80/76 115/79/75
f 301/247/222 300/246/221 111/81/77
f 301/247/222 111/81/77 116/80/76
f 177/141/128 174/138/125 158/137/124
f 177/141/128 158/137/124 156/588/487
f 173/611/495 148/112/102 141/111/99
f 173/611/495 141/111/99 162/776/115
f 167/132/120 166/131/119 152/119/109
f 167/132/120 152/119/109 150/118/108
f 98/66/63 91/65/62 80/54/52
f 98/66/63 80/54/52 79/53/51
f 92/61/59 90/60/58 87/727/55
f 92/61/59 87/727/55 81/777/52
